<svg xmlns="http://www.w3.org/2000/svg" viewBox="0 0 161.9 72.55"><defs><style>.cls-1{fill:#2f1a45;}.cls-2{fill:#fff;}</style></defs><g id="Layer_2" data-name="Layer 2"><g id="Layer_2-2" data-name="Layer 2"><path class="cls-1" d="M39.76,67.94A8.13,8.13,0,0,1,31.52,69a7.85,7.85,0,0,1-4-4.09c-1-2.27-.74-4.82-.89-7.28s-.84-5.15-2.91-6.47c-2.29-1.46-5.25-.69-8-.59A15.2,15.2,0,0,1,4.13,24.92,15.48,15.48,0,0,1,13.2,20.2a14.9,14.9,0,0,1,3.89,0c5.58.73,8.88-5.22,8.42-10.11-.21-2.2-1-4.48.06-6.6A6.3,6.3,0,0,1,30.72,0a6.22,6.22,0,0,1,6.64,6.2,6.07,6.07,0,0,1-1.77,4.2c-1.43,1.45-3.18,1.55-5,2.3a8.88,8.88,0,0,0-4.85,5.88,7.93,7.93,0,0,0,.19,5c.62,1.63,1.81,2.87,2.63,4.38a15.65,15.65,0,0,1,1.59,10.46,13.57,13.57,0,0,1-.47,1.77c-.49,1.48-1.21,2.88-1.56,4.39a7.81,7.81,0,0,0,1.33,6.36c1.73,2.25,4.7,2.5,7.25,3.26a8,8,0,0,1,5.83,5.94,8.43,8.43,0,0,1,.15,1.23A8.19,8.19,0,0,1,39.76,67.94Z"/><path class="cls-2" d="M26.21,42.13A12.68,12.68,0,0,1,2.66,35.58c0-.19,0-.37,0-.56,1.36-.14,2.77-.22,3-.22a20.82,20.82,0,0,1,8.48,1.75c2.78,1.23,5.27,3,8,4.29A18.78,18.78,0,0,0,26.21,42.13Z"/><path class="cls-1" d="M42,30.65h0L26.69,23.26l2,2a14.22,14.22,0,0,1,3.12,5.48c1.44,4.62.62,9.54-2.45,14.6l-.84,1.39L41.64,40.2l9.9-5ZM31,44.48c3.19-6,2.75-10.93,1.76-14.07a16.22,16.22,0,0,0-2-4.17l12,5.78,6.73,3.24-6.69,3.35Z"/><path class="cls-1" d="M43.5,31.37l8,3.88-8,4A8.53,8.53,0,0,1,43.5,31.37Z"/><path class="cls-1" d="M77.6,34.84l9.73-18.31h8.11v36.1H87.28V32.22L79.85,46.67H75.19L67.92,32.38V52.63H59.75V16.53h8.06Z"/><path class="cls-1" d="M120.5,26.52c-1.41-2.41-3.19-3.3-6.43-3.3-2.88,0-4.13,1.31-4.13,3.14,0,2.15,1.88,3.35,6.43,4.66,7.85,2.25,10.83,5.18,10.83,11.35,0,6.55-4.39,10.78-12.61,10.78-6.59,0-11-1.62-14.44-5.91l6.49-4.55c1.78,2.25,4,3.24,7.22,3.24s4.66-1.41,4.66-3.14c0-2.09-1.47-3.14-6.81-4.86-7.32-2.36-10.46-5.71-10.46-11.51,0-6,3.92-10.42,12.71-10.42,5.76,0,10.42,1.94,13,5.92Z"/><path class="cls-1" d="M151.54,52.63l-7.8-13.86-3.14,4.28v9.58h-8.69V16.53h8.69V29.92l9.31-13.39H160l-10.67,14.6,12.56,21.5Z"/><path class="cls-1" d="M67.11,59.57v1.14H64v9H62.78v-9H59.7V59.57Z"/><path class="cls-1" d="M72.59,68.56A2.58,2.58,0,0,1,70,69.79a3,3,0,0,1-3.14-3.31v-1c0-2.08,1-3.28,2.9-3.28s2.9,1.19,2.9,3.28v.77H68.06v.2c0,1.26.6,2.26,1.88,2.26a1.74,1.74,0,0,0,1.74-.82Zm-4.53-3.31H71.5c0-1.23-.6-2-1.71-2S68.14,64,68.06,65.25Z"/><path class="cls-1" d="M76.78,65.44h1.74v-.85c0-1-.48-1.27-1.63-1.27-.88,0-1.35.07-1.76.74l-.87-.61a2.67,2.67,0,0,1,2.65-1.22c1.86,0,2.78.6,2.78,2.36v5.08H78.52V69c-.41.67-.91.83-1.86.83C75,69.79,74,69,74,67.54,74,66,75.16,65.44,76.78,65.44Zm1.74,1H76.78c-1.16,0-1.57.39-1.57,1.12s.58,1.15,1.45,1.15c1.08,0,1.86-.21,1.86-1.85Z"/><path class="cls-1" d="M86.92,68.56a2.62,2.62,0,0,1-2.53,1.23,3,3,0,0,1-3.16-3.31v-1a3.22,3.22,0,0,1,5.69-2.13L86,64a1.92,1.92,0,0,0-1.61-.73,1.94,1.94,0,0,0-2,2.22v1c0,1.26.58,2.26,2,2.26A1.74,1.74,0,0,0,86,67.92Z"/><path class="cls-1" d="M88.09,59.57h1.17v3.5a2,2,0,0,1,2-.84c1.56,0,2.66.82,2.66,2.87v4.57H92.72V65.12c0-1.48-.8-1.8-1.67-1.8a1.7,1.7,0,0,0-1.79,1.78v4.57H88.09Z"/><path class="cls-1" d="M95.94,59.57h1.32v1.32H95.94ZM96,62.35h1.18v7.32H96Z"/><path class="cls-1" d="M99.31,62.35h1.17v.72a2,2,0,0,1,2-.84c1.57,0,2.67.82,2.67,2.87v4.57h-1.17V65.12c0-1.48-.81-1.8-1.67-1.8a1.7,1.7,0,0,0-1.79,1.78v4.57H99.31Z"/><path class="cls-1" d="M111.57,62.35h1.17v7.18c0,2-1.17,3-3.14,3A2.57,2.57,0,0,1,107,71.31l.91-.64a1.74,1.74,0,0,0,1.74.82,1.71,1.71,0,0,0,1.88-2V69a2.34,2.34,0,0,1-2,.76c-2,0-2.93-1.4-2.93-3.31v-1c0-2.09,1.12-3.28,2.93-3.28a2.3,2.3,0,0,1,2,.85Zm0,4.13v-1c0-1.37-.68-2.22-1.88-2.22s-1.87.83-1.87,2.22v1c0,1.25.63,2.26,1.87,2.26S111.57,67.74,111.57,66.48Z"/><path class="cls-1" d="M122.86,65.87l3-6.3h1.25v10.1h-1.26V62.26l-2.46,5.3h-1.13l-2.42-5.25v7.36h-1.26V59.57h1.23Z"/><path class="cls-1" d="M135,66.48c0,1.91-.94,3.31-3,3.31-2,0-3-1.29-3-3.31v-1c0-2.08,1.12-3.28,3-3.28s3,1.19,3,3.28Zm-1.17,0v-1c0-1.39-.68-2.22-1.88-2.22s-1.87.85-1.87,2.22v1c0,1.26.52,2.26,1.87,2.26S133.87,67.73,133.87,66.48Z"/><path class="cls-1" d="M141.13,59.57h1.17v10.1h-1.17V69a2.33,2.33,0,0,1-2,.76c-2,0-2.93-1.4-2.93-3.31v-1c0-2.09,1.11-3.28,2.93-3.28a2.29,2.29,0,0,1,2,.85Zm0,7V65.51c0-1.37-.68-2.22-1.88-2.22s-1.87.83-1.87,2.22v1c0,1.25.63,2.26,1.87,2.26S141.13,67.8,141.13,66.58Z"/><path class="cls-1" d="M150,69.67h-1.17V69a2,2,0,0,1-2,.83c-1.57,0-2.67-.82-2.67-2.87V62.35h1.17v4.56c0,1.48.81,1.8,1.67,1.8a1.71,1.71,0,0,0,1.79-1.79V62.35H150Z"/><path class="cls-1" d="M151.9,59.57h1.18v7.56c0,.79,0,1.46,1.24,1.46v1.08c-1.84,0-2.42-.73-2.42-2.25Z"/><path class="cls-1" d="M161.25,68.56a2.58,2.58,0,0,1-2.57,1.23,3,3,0,0,1-3.13-3.31v-1c0-2.08,1-3.28,2.9-3.28s2.9,1.19,2.9,3.28v.77h-4.63v.2c0,1.26.6,2.26,1.88,2.26a1.74,1.74,0,0,0,1.74-.82Zm-4.53-3.31h3.44c0-1.23-.6-2-1.71-2S156.79,64,156.72,65.25Z"/></g></g></svg>