<svg xmlns="http://www.w3.org/2000/svg" width="291" height="824" viewBox="0 0 291 824"><defs><style>.a{fill:#cac6cf;}.b{fill:#958da0;}.b,.c,.d{fill-rule:evenodd;}.c{fill:#605472;}.d{fill:#2f1a45;}</style></defs><g transform="translate(-1405 -175.944)"><path class="a" d="M412.262,466.938c-.479-5.829.035-12.5-4.766-20.068-3.054-4.82-7.16-15.971-9.111-17.764s-1.4-18.385-1.4-27.9c0-8.792,2.429-25.156,0-42.743s-3.383-40.544-4.134-47.059-1.337-40.807-3.908-59.086-13.069-66.293-13.069-66.293l-.349.3c-1.819-14.363-6.872-26.288-23-32.5-3.224-1.149-10.665-2.844-13.78-4.459-18-9.345-34.9-16.422-49.683-19.4-.142-3.974.146-12.289.238-15.816,6.447-3.714,10.429-28.557,10.645-30.527,3.429.334,7.619-3.161,10.133-9.827,1.172-3.114,1.836-8.285-.4-11.161-.638-.825-1.481-1.885-4.112-.419,1.52-6.833,2.466-23.931-3.387-33.818s-13.842-21.6-35.727-21.574c-6.092.006-17.387,2.016-24.531,7.032-12.363,8.683-13.2,16.4-16.032,27.843-1.913,7.732.283,17.847.479,18.808-2.631,0-3.685,1.14-4.217,2.21-2.353,4.726,1.168,16.575,4.505,19.985a4.906,4.906,0,0,0,5.385,1.334c-.17,3.825,1.971,24.586,10.048,28.079.49,5,.536,14.418.593,16.956-7.223,3.025-21.1,8.475-28.038,12.474a124.561,124.561,0,0,0-12.039,6.775c-5.4,3.282-11.886,3.729-18.084,5.846-6.981,2.385-14.694,6.4-19.7,11.921-5.278,5.814-9.994,13.659-11.113,30.7,0,0-6.485,36.777-9.057,55.055s-3.159,52.571-3.908,59.088-1.7,29.472-4.134,47.059,0,33.949,0,42.743c0,9.515.549,26.105-1.4,27.9s-6.055,12.946-9.111,17.764c-4.8,7.575-4.287,14.239-4.766,20.07s3.973,6.739,7.01,2.621,9.018-18.519,9.018-18.519,1.274,12.174,1,19.638,1,25.237,4.463,27c4.348,2.216,5.711-1.919,5.711-1.919a4.533,4.533,0,0,0,5.846,2.9c2.768-.725,4.093-8.124,4.093-8.124s2.239,2.655,4.773,2.017c3.193-.8,2.137-7.066,2.137-7.066a7.187,7.187,0,0,0,5.308-2.982c1.714-2.268,2.326-8.2,2.8-12.944s-.553-27.676-2.9-33.633c-2.681-6.822-6.643-9.015-7.354-12.61-1.346-6.794,1.207-16.311,3.193-27.24,2.882-15.847,6.191-29.317,7.057-35.171,2.178-14.737,4.076-37.019,5.422-43.786,2.233-11.225,6.186-42.026,7.622-70.4.362-7.184.773-12.729,1.144-16.856.982,2.648,2.531,6.939,6.521,15.594,1.381,15.93,3.657,38.264,6.768,55.857,2.355,13.312,4.348,23.16,2.048,36.345s-9.467,32.686-12.636,52.947c-5.33,34.09-6.84,50.578.982,105.159,3.6,25.143,8.754,45.883,9.606,53.7s.333,30.521,0,37.026c-2.4,47.057-3.514,62.624,0,99.749s12.6,61.06,10.774,82.913c-.3,3.548-5.419,8.434-5.67,17.715-.261,9.587-5.785,18.562-3.631,28.736-.46,5.835,2.627,12.472,7.284,9.306,1.015,3.167,5.665,4.314,7.1,1.946.993,2.369,5.648,5.932,8.079,2.369.4,2.017,5.524,3.419,7.892,0,4.075,3.912,10.129,2.072,12.375-4.828.987-3.036,5.47-5.314,4.4-11.2C247.728,802.5,246.9,795.4,245.7,787.2c-.958-6.531-5.117-10.019-2.773-15.429s3.487-8.994,1.864-16.158c-.947-4.178,5.441-77.41,7.144-88.905,4.343-29.31,1.15-45.238-1.4-56.176-2.39-10.259.078-17.432,1.435-35.143,1.057-13.794-1.085-29.991-1.708-34.552-1.424-10.423,9.844-73.9,9.844-108.885,0-5.814,2.823-3.327,5.783-3.325,5.866.006,5.783-3.157,5.783,2.476,0,32.675,12.043,99.311,10.619,109.734-.623,4.561-2.768,20.759-1.71,34.552,1.357,17.711,3.827,24.884,1.436,35.143-2.551,10.938-5.744,26.866-1.4,56.176,1.7,11.495,8.09,84.727,7.144,88.905-1.623,7.164-.479,10.746,1.865,16.158s-1.817,8.9-2.775,15.429c-1.2,8.194-2.024,15.3-3.877,25.517-1.067,5.884,3.416,8.162,4.406,11.2,2.246,6.9,8.3,8.74,12.374,4.828,2.368,3.419,7.495,2.017,7.892,0,2.431,3.563,7.086,0,8.079-2.369,1.436,2.369,6.086,1.221,7.1-1.946,4.657,3.167,7.744-3.471,7.284-9.306,2.154-10.174-3.37-19.149-3.629-28.736-.251-9.281-5.376-14.167-5.672-17.715-1.823-21.854,7.26-45.789,10.774-82.913s2.405-52.692,0-99.749c-.333-6.505-.852-29.212,0-37.026s6-28.557,9.608-53.7c7.822-54.581,6.312-71.069.98-105.159-3.169-20.261-10.335-39.761-12.634-52.947s-.309-23.033,2.047-36.345c3.505-19.819,5.951-45.658,7.249-61.571,2.041-3.7,4.123-7.29,6.306-10.812a168.924,168.924,0,0,1,1.917,18.266c1.436,28.378,5.389,59.176,7.621,70.4,1.348,6.767,3.246,29.049,5.424,43.785.865,5.856,4.174,19.325,7.057,35.171,1.986,10.929,4.539,20.446,3.193,27.24-.712,3.6-4.674,5.79-7.354,12.61-2.342,5.958-3.374,28.885-2.9,33.633s1.091,10.676,2.8,12.944a7.187,7.187,0,0,0,5.308,2.982s-1.056,6.265,2.137,7.068c2.535.636,4.773-2.019,4.773-2.019s1.324,7.4,4.093,8.124a4.533,4.533,0,0,0,5.846-2.895s1.363,4.135,5.711,1.919c3.465-1.766,4.74-19.54,4.463-27s1-19.638,1-19.638,5.979,14.4,9.018,18.519S412.741,472.77,412.262,466.938Z" transform="translate(1283.702 169.127)"/><g transform="translate(1521.758 281.16)"><path class="b" d="M215.546,68.193c-.235.592.187,1.4-.022,1.97-1.469.49-2.527-.446-3.611-.966-.5-.241-1.119-.459-1.708-.731a8.913,8.913,0,0,0-1.639-.8c-1.586-.274-3.293.266-4.636.4-.307.031-.746-.037-1.055.028a13.361,13.361,0,0,0-3.332,1.774c-1.116.753-2.031,2.168-3.685,1.78-.359-.969-.353-2.324-.923-3.073-1.093.468-2.244,1.543-3.843,1.082-1.289-1.865,1.543-2.148,3.018-3.1a9.966,9.966,0,0,0,1.441-1.445,5.828,5.828,0,0,1,2.148-1.391,10.6,10.6,0,0,1,2.189.366c.646.133,1.314.505,1.917.586,1.571.211,3.486-.05,5.35.006a14.7,14.7,0,0,0,2.326.154c.438-.083.784-.494,1.249-.666a5.779,5.779,0,0,1,2.8-.422,4.486,4.486,0,0,1,1.5.808c.339.287.485.747.8.964,1.23.857,4.063.76,4.338,1.861A1.247,1.247,0,0,1,219.5,68.8C218.58,69.046,216.5,68.024,215.546,68.193Z" transform="translate(-179.108 -63.688)"/><path class="b" d="M213.9,69.083a3.893,3.893,0,0,0,2.205,3.745c.3.191.746.178.927.468.786,1.639-1.641,1.674-2.783,1.338-1.632-.483-2.37-2.947-3.948-3.067-1.278.54-2.684,2.294-4.509,2.647a6.565,6.565,0,0,1-4.734-.727c-.6-.431-.81-1.13-1.447-1.652-3.611-.252-3.38,3.511-6.745,3.267-1-1.175.574-1.624,1.132-2.564.392-.659.307-1.674.794-2.129.385-.363,1.154-.394,1.6-.6a13.481,13.481,0,0,0,2.072-1.46,12.363,12.363,0,0,1,2-1.53c1.458-.66,3.554-.364,5.336-.555a7.154,7.154,0,0,1,1.406-.035c1.56.183,2.538,1.227,3.778,1.874C211.942,68.6,212.909,68.541,213.9,69.083Z" transform="translate(-177.596 -61.55)"/><path class="b" d="M213.081,71.085c.54.442.773,1.2,1.376,1.584.448-.009,1.019-.229,1.338.037.163.945.516,2.779.017,3.519a7.821,7.821,0,0,1-3.191-1.045c-.646-.394-.919-.858-1.907-.305-.675.376-1.054,1.079-1.652,1.521a6.552,6.552,0,0,1-2.222,1.182,9.115,9.115,0,0,1-4.875-.723,21.955,21.955,0,0,1-3.645-2.231c-1.722-.379-2.024.834-2.919,1.412a8.8,8.8,0,0,1-2.092.827c-.773-.305-.4-1.978-.278-2.668a6.318,6.318,0,0,0,2.122-2.375c.951-.337,2.1-.253,3.151-.642.537-.2,1.093-.71,1.6-.746.886-.055,1.7,1.012,2.566,1.275a8.542,8.542,0,0,0,5.33-.7c.383-.2.857-.982,1.243-1.014.507-.043.875.76,1.362.949A8.1,8.1,0,0,0,213.081,71.085Z" transform="translate(-177.35 -58.331)"/><path class="b" d="M215.887,75.645a5.07,5.07,0,0,1-.207,2.819c-2.141.4-3.419-1.676-5.652-.773-.8.324-1.008.975-1.65,1.521-1.759,1.495-6.407,1.352-8.235-.006a8.725,8.725,0,0,1-.934-.89c-.255-.281-.459-.818-.87-.894a5.1,5.1,0,0,0-2.3.692c-.562.241-1.46,1-2.092.825-.5-.141-1.023-1.817-.7-2.655.311-.809,2.357-1.232,3.2-1.489.611-.185,1.245-.311,1.889-.468a7.316,7.316,0,0,1,1.819-.47c.9.041,1.915,1.062,2.916,1.264,2.411.487,5.256-.228,6.227-1.493.688-.561,1.656.618,2.764.775.327.046.807-.085,1.125-.03.592.109.944.736,1.5.949C215.184,75.513,215.506,75.321,215.887,75.645Z" transform="translate(-177.085 -55.366)"/><path class="b" d="M216.833,81.689c-2.3.152-3.9-1.484-6.338-.261a26.148,26.148,0,0,1-2.216,1.462,10.236,10.236,0,0,1-3.3.437A11.473,11.473,0,0,1,201.6,83.2c-.916-.274-1.785-2-2.733-2.324-1.228-.418-2.305.263-3.288.786-.651.348-1.19.838-1.811.749a1.741,1.741,0,0,1-1.04-2.226c.322-.834,2.122-1.134,3.2-1.487,1.267-.416,2.276-1.2,3.345-1.351,1.395-.2,2.875.714,4.455.8a12.023,12.023,0,0,0,3.933-.241,8.98,8.98,0,0,0,1.8-1.1c.709-.422,1.23.488,1.778.731,1.112.49,3,.677,4.25,1.158a4.892,4.892,0,0,1,1.21.533A2.947,2.947,0,0,1,216.833,81.689Z" transform="translate(-177.528 -52.628)"/><path class="b" d="M216.812,82.242c.1.355.294.6.237.981-.076.487-1.569,1.5-2.213,1.6-1.24.2-2.438-.586-3.665-.259s-1.948,1.528-3.332,1.843a16.052,16.052,0,0,1-8.675-.7c-.316-.144-.629-.47-1-.538a4.463,4.463,0,0,0-1.822.185,7.749,7.749,0,0,1-1.467.461c-.936.006-1.623-1.106-2.215-1.282-.392-1.963.625-2.7,2.464-2.807a10.645,10.645,0,0,0,1.2.041c.986-.155,2.407-1.993,3.054-1.765.892.315,1.517,1.138,2.357,1.419,1.463.487,5.119.531,6.607-.309.44-.246,1.142-1.142,1.66-1.236a6.692,6.692,0,0,1,3.045.766C214.407,81.334,215.206,82.024,216.812,82.242Z" transform="translate(-177.566 -49.942)"/><path class="b" d="M213.723,83c.777,1.587,2.677,1.994,4.015,3,.052,1.051.685,2.422-.137,2.958-1.767-.1-3.156-.919-5.365-.64a10.789,10.789,0,0,0-2.161.76c-3.26,1.1-7.992.4-10.993-.568a9.763,9.763,0,0,0-1.565-.666c-2.048-.25-3.489.94-5.184.975a5.831,5.831,0,0,1-.409-2.24,19.993,19.993,0,0,1,3.047-2.048c.483-.329.936-.977,1.31-1.09a8.506,8.506,0,0,1,1.685-.113,3.689,3.689,0,0,1,2.764.777,3.972,3.972,0,0,0,1.212.672,17.929,17.929,0,0,0,2.185.017,14.508,14.508,0,0,0,5.334-.557c.816-.329,1.369-1.188,2.359-1.325A11.652,11.652,0,0,1,213.723,83Z" transform="translate(-178.122 -47.37)"/><path class="b" d="M199.335,94.1c-.4-.938-.174-1.125-.531-1.6-.265-.353-.553-.327-1-.538-.266-.128-.614-.507-.927-.54a8.711,8.711,0,0,0-3.21,1.066c-.52.237-1.066.722-1.462.74-.76.041-1.769-.949-1.944-1.852-.224-1.153.333-3.08,1.18-3.336.531-.159,1.153.194,1.909.3a9.334,9.334,0,0,0,3.027.065,3.463,3.463,0,0,0,1.45-1.092c.327-.377.527-1.454,1.234-1.369,1.491.183,2.956,1.537,4.479,1.789a15.465,15.465,0,0,0,7.511-.683c1.238-.5,2.192-.9,3.308-.081.557.411.747,1.147,1.443,1.51a4.408,4.408,0,0,0,1.421.457c1.993.246,4.157-1.547,5.547-.49a2.577,2.577,0,0,1,.35,2.666,3.071,3.071,0,0,1-1.8,1.1,5.809,5.809,0,0,1-2.309.549c-.853-.076-1.665-1.169-2.7-1.2a4,4,0,0,0-1.536.459c-.387.246-.62.79-1.029,1.082a10.089,10.089,0,0,1-3.486,1.284,38.877,38.877,0,0,1-3.994.734c-1.691.178-2.964-.466-4.522-.731A9.558,9.558,0,0,1,199.335,94.1Z" transform="translate(-179.578 -44.773)"/><path class="b" d="M223.256,92.4a4.173,4.173,0,0,1-1.882,3.5c-1.635.907-3.9.207-5.225-.572-.673.4-1.173,1.068-2,1.526-1.939,1.075-5.406,1.3-8.346,1.123-1.835-.111-3.687-.845-5.3-.921a13.419,13.419,0,0,1-2.039.052c-.862-.218-1.062-1.345-1.8-1.5-1.315-.366-1.95.827-2.864.916-.781.076-1.184-.529-1.852-.87-.511-.259-1.166-.192-1.425-.736-.444-1.68.05-2.746,1.4-2.993,2.3-.418,5.169,1.778,6.473-.02,1-1.384,2.979-.228,4.224.033a15.77,15.77,0,0,0,2.12.3c3.537.241,5.768-1.221,8.473-1.689.12-.022.148-.07.278-.08.533-.03,1.147.768,1.574,1.088.468.346,1.058.907,1.713.871.868-.048,1.223-1.038,2.22-1.182A7.237,7.237,0,0,1,223.256,92.4Z" transform="translate(-179.446 -40.93)"/><path class="b" d="M214.912,99.478c-1.621.488-1.136,1.615-1.976,2.512a5.8,5.8,0,0,1-2.651.912c-2.022.431-3.382.838-5.622.351-.435-.094-.962-.361-1.489-.525-1.01-.315-1.95-.635-2.982-.981a11.8,11.8,0,0,1-1.489-.455c-.377-.22-.492-.8-.8-.966a5.291,5.291,0,0,0-2.673-.074c-.625.141-.925.631-1.391.67a4.251,4.251,0,0,1-2.35-1.067,3.249,3.249,0,0,1-.266-2.244,2.775,2.775,0,0,1,1.793-1.384c.688-.013.938.82,1.715.942a12.439,12.439,0,0,0,2.8-.281c.692-.77.224-2.377,2.057-2.235,2.548.2,4.916,1.31,7.624,1.006a15.2,15.2,0,0,0,2.8-.633c1.071-.337,1.754-.988,3.5-.651.586.768.814,1.882,1.948,1.92.512.018,1.14-.5,1.743-.675,1.45-.438,3.077-.259,3.815.607.892,1.045.039,1.8-.847,2.7a3.991,3.991,0,0,1-2.078,1.389C216.773,100.5,215.961,99.674,214.912,99.478Z" transform="translate(-178.796 -37.682)"/><path class="b" d="M214.049,100.523a5.122,5.122,0,0,0,2.1-.4c.39-.244.5-.69.892-.866a14.56,14.56,0,0,1,2.877-.355,4.873,4.873,0,0,1,1.16,1.308c.3.448.932,1.079.953,1.523a2.173,2.173,0,0,1-1.367,1.584c-1.743.481-4.25-.607-5.77.006-.718.289-.921,1.486-1.641,1.941a10.232,10.232,0,0,1-2.583.908,20.219,20.219,0,0,1-3.635.936,10.432,10.432,0,0,1-4.239-.668c-.825-.307-1.515-1-2.424-1.275-.553-.167-1.291-.048-1.632-.453-.6-.718-.105-1.684-1.108-2.153a6.382,6.382,0,0,0-2.592.488,6.291,6.291,0,0,1-2.033.331,2.83,2.83,0,0,1-1.8-1.5c-.252-.827.083-2.44.775-2.764.957-.448,2.017.309,2.758.564.929.318,1.669.344,2.479.64.757-.352.884-1.839,2.351-1.676a17.49,17.49,0,0,1,2.982,1.051,10.56,10.56,0,0,0,5.371.921c2.152-.294,3.006-1.284,5.386-1.334C213.864,99.372,213.758,100.156,214.049,100.523Z" transform="translate(-178.799 -33.991)"/><path class="b" d="M213.362,102.978c.692.475.794,1.569.91,2.649,1.9-.279,3.243-1.082,5.535-.982a3.282,3.282,0,0,1,1.206,3.206c-.22.359-.7.413-1.108.662s-.672.662-1.106.8c-1.284.411-2.76.068-4.427.252-.884.505-.7,2.126-1.408,2.851-.466.472-2.063.629-2.8.773a43.346,43.346,0,0,1-5.115.833,6.186,6.186,0,0,1-2.683-.285c-1.2-.448-1.887-1.478-2.927-1.685-.6-.118-1.286.137-1.413-.246-.213-.514.017-.986-.037-1.478a2.7,2.7,0,0,0-1.956-2.272c-1.524-.226-3.891,1.611-4.577-.024a3.864,3.864,0,0,1,.093-1.976c.161-.6.633-1.756,1.077-1.926.34-.131,1.386.309,1.985.514.91.307,2.52,1.064,3.6.4.879-.54.085-2.779,1.626-2.575.527.072.855.6,1.432.949a10.071,10.071,0,0,0,6.146.971C209.617,104.123,211.278,103.257,213.362,102.978Z" transform="translate(-178.6 -30.731)"/><path class="b" d="M211.357,108.838c2.2,1.112,3.743,3.167,7.73,2.338.438.544,1.188.993,1.241,1.728.048.688-.8,1.981-.99,2.629-1.051.474-1.989-.394-2.829-.492-1.717-.2-2.694,1.086-3.68,1.922-.488.009-.725-.25-1.136-.324a11.1,11.1,0,0,1-4.318,1.8c-2.76.352-5.289-.553-8.107-.572-.7-.318-.72-1.04-1.025-1.593a3.2,3.2,0,0,0-1.439-1.3,7.906,7.906,0,0,0-2.181-.017,7.559,7.559,0,0,1-2.037.263c-.664-.131-.944-1.042-1.439-1.23-.022-1.717,1.056-2.385,1.6-3.56,1.619-.339,2.524.834,4.024.533a5.258,5.258,0,0,0,1.595-1.027c.192-.161.283-.427.479-.574a6.452,6.452,0,0,1,1.809-.821c.49.035.468.49.86.683.222.111.714.052,1.06.185.442.172.686.483,1.14.535.6.07,1.306-.065,2.039-.052.694.015,1.4.135,2.044.091A13.127,13.127,0,0,0,211.357,108.838Z" transform="translate(-178.783 -25.559)"/><path class="b" d="M212.678,114c.35.355.285,1.143.464,1.676,1.863,1.608,6.007-1.325,7.406.659a4.6,4.6,0,0,1,.414,2.523c-.472,3-4.588,1.232-6.982,2.146a7.435,7.435,0,0,0-.3,1.978c-.886.962-2.684.72-4.549.888-3.761.342-8.488,1.438-9.189-1.528-1.634-1.191-5.578-.622-7.434-1.783-1.082-.679-1.746-3.106-.311-4.072,1.8-.268,3.846.6,5.2-.344.551-.383.67-1.314,1.154-1.647a4.2,4.2,0,0,1,2.388-.2c1.108.165,2.733.553,3.815.609a15.306,15.306,0,0,0,1.968-.05C209.082,114.642,210.449,113.691,212.678,114Z" transform="translate(-178.592 -20.973)"/><path class="b" d="M213.248,119.541a5.185,5.185,0,0,1,.964,1.946c.224.7.5,1.582,1.171,1.8,1.047.339,2.2-.144,3.171.2a2.8,2.8,0,0,1,1.584,1.367,4.421,4.421,0,0,1-.7,3.184c-1.991.233-3.758-.475-5.41.277-1.262.575-1.626,1.924-3.7,1.219-.444-.15-.81-.509-1.284-.672a11.855,11.855,0,0,0-4.871-.583c-2.178.244-3.265,1.08-5.672,1.13-.39-.224-.17-1.058-.527-1.395-.522-.5-2.078-.059-3.167.009s-2.683.141-3.1-.346c-.919-1.062.093-3.846.738-4.239a6.3,6.3,0,0,0,6.771-2.281c.44-.557.738-1.534,1.3-1.582.366-.031.685.42,1.067.535,1.685.512,4.311.372,6.621.187C210.027,120.153,211.7,119.254,213.248,119.541Z" transform="translate(-178.621 -16.257)"/><path class="b" d="M213.1,125.906a9.243,9.243,0,0,0,1.706,3.545,9.9,9.9,0,0,0,3.682.753c.1.418.594.588.729,1.106.409,1.558-.437,4.331-1.9,2.934-.257-.248-.239-.651-.651-.759-1.086-.283-1.659.557-2.588.629-.257.59-.6,1.743-1.5,1.8-.7.043-.7-.555-1.288-.882a6.568,6.568,0,0,0-2.057-.583,30.411,30.411,0,0,0-9.963,1.166c-1.256-.821-1.95-2.276-4.264-1.65-.9.242-1.38,1-2.229.9-.962-.117-1.3-2.113-.783-3.145.4-.794,1.813-.686,2.93-.919a10.645,10.645,0,0,0,2.438-1.047c.024-1.018-.15-2.207.352-2.9a5.933,5.933,0,0,1,2.153-1.038,12.772,12.772,0,0,1,2.516-.7C206.434,124.639,209.948,125.627,213.1,125.906Z" transform="translate(-178.268 -11.578)"/><path class="b" d="M219.451,136.7a4.975,4.975,0,0,1-.5,2.546c-.266.625-.709,1.641-1.3,1.721-1.056.144-1.5-1.24-2.505-1.7a4.781,4.781,0,0,0-2.825-.279c.056,1.056.059,2.065-.5,2.544-1.856,0-3.365-1.486-5.18-1.7a14.323,14.323,0,0,0-3.933.309,20.027,20.027,0,0,0-3.212,1c-.49.185-.907.685-1.462.529-.742-.609-.017-1.9-.07-2.742a8.727,8.727,0,0,0-2.183-.017c-.816.257-1.06,1.795-2.35,1.678-1-.093-1.347-2.118-1.067-3.212.363-1.412,2.631-2.133,3.863-3.121a17.247,17.247,0,0,1,2.479-2.174c2.139-1.117,5.2-1.478,8.483-1.339a14.344,14.344,0,0,1,2.681.283c.3.085.525.355.857.472.881.313,2.068.259,2.7.988C213.164,136.008,217.43,135.348,219.451,136.7Z" transform="translate(-177.82 -6.709)"/><path class="b" d="M215.1,147.816c-.494.187-.746.931-1.38,1.09-.833.209-1.715-.612-2.629-.99-3.817-1.569-10.026-.444-12.838,1.519-.5.346-.784.853-1.384,1.092a6.95,6.95,0,0,1-1.536-2.355c-.982-.394-1.907.9-2.662.488-.783-.422-.039-2.115-.146-3.091,1.016-1.23,3.6-.973,4.444-2.363.109-1.648.39-3.783,1.143-4.816.945-1.293,4.69-2.265,7.2-2.152a11.79,11.79,0,0,1,2.327.224c.361.1.688.363,1.067.466.3.081.657.033.918.117a5.692,5.692,0,0,1,2.514,2.048c.329.718.093,1.439.266,2.176.263,1.1,2.244,2.6,3.241,3.014a9.688,9.688,0,0,0,2.261.3,2.7,2.7,0,0,1,.64,3.08C217.89,148.68,215.975,148.258,215.1,147.816Z" transform="translate(-177.791 -2.023)"/><path class="b" d="M215.352,155.034a2.2,2.2,0,0,1-2.8.492c-.409-.205-.7-.664-1.151-.956-3.709-2.381-10.69-.984-13.472,1.606-.555-.209-.712-.84-1.154-1.167-1.4.2-2.509,1.043-3.985.944a3.123,3.123,0,0,1-.562-2.66c2.964-1.066,6.163-3.391,5.373-7.454,2.383-2.255,5.92-3.164,9.632-3.2a15.188,15.188,0,0,1,3.467.758,4,4,0,0,1,3.4,3.5,9.507,9.507,0,0,0,.181,1.684c.165.424.912.87,1.371,1.3s.956.916,1.369,1.232c.8.612,2.523,1.519,2.664,2.536.093.64-.594,2.324-1.273,2.424-.414.063-.673-.27-1-.4A18.24,18.24,0,0,1,215.352,155.034Z" transform="translate(-177.932 3.425)"/><path class="b" d="M214.75,157.243a10.151,10.151,0,0,0,5.306,1.136,9.936,9.936,0,0,1,1.33-.316c.734.043,1.874,1.143,2.222,1.563.453.548.942,1.654.055,2.25-1.926-.5-5.591-.9-7.741.056.061,1.016.107,2.022-.5,2.405-2.677-.229-4.927-1.948-7.794-2.128a16.665,16.665,0,0,0-7.358,1.31c-.627.279-1.225.8-1.95.755-.213-.675.344-1.469.013-2.253a19.111,19.111,0,0,0-5.772-.067c-.574.113-.964.566-1.536.461-.337-1.547.2-4.246,1.574-4.612,1.2-.322,2.916.37,4.3.174a6.826,6.826,0,0,0,1.672-.607,4.873,4.873,0,0,1-.505-3.3c.137-1.58.259-1.795,1.277-2.494a18.729,18.729,0,0,1,7.606-2.514c1.97-.235,3.323.6,4.818,1.217a9.871,9.871,0,0,1,3.212,1.819C215.524,153.77,215.62,155.95,214.75,157.243Z" transform="translate(-178.969 8.855)"/><path class="b" d="M217.692,161.645a13.864,13.864,0,0,0,5.367.849c.894-.093,1.952-.927,2.655-.84s1.791,1.967,1.83,2.838c.03.638-.8,2.364-1.486,2.431-.509.052-.938-.686-1.43-.879-2.494-.982-6.127-.2-7.06,1.867.056.487.562.775.6,1.323a2.836,2.836,0,0,1-1.28,2.285c-.437.093-1.042-.331-1.487-.457-1.09-.3-2.3-.474-3.539-.755a30.463,30.463,0,0,0-8.031-.433,12.715,12.715,0,0,0-3.789.588c-.4.168-.49.509-1.038.66a9.323,9.323,0,0,1-.3-3.722,11.545,11.545,0,0,0-5.861-.7,9.381,9.381,0,0,1-3.012.5,2.9,2.9,0,0,1-.625-2.448c.194-.777,2-2.784,2.882-2.886,1.079-.124,2.8,1.31,4.47,1.363a9.837,9.837,0,0,0,2.662-.418c-.107-.788-.812-1.1-.892-1.878-.113-1.106.809-1.778,1.561-2.361,2.081-.061,4.3-1.13,6.651-1.364a24.731,24.731,0,0,1,3.587-.02c2.93.148,5.831.777,7.652,2.061A6.356,6.356,0,0,1,217.692,161.645Z" transform="translate(-180.499 15.749)"/><path class="b" d="M218.183,172.59a2.65,2.65,0,0,0,.451,1.114,4.8,4.8,0,0,1,.52,1.114,3.281,3.281,0,0,1-.52,1.7c-1.393,1.911-5.97,2.105-9.52,2a23.88,23.88,0,0,1-5.441-.779c-1.8-.518-3.6-.716-4.473-1.719-.3-1.545.479-2.716.257-3.735-.411-.255-1.314.379-1.963.333-.52-.041-.8-.525-1.356-.812a6.441,6.441,0,0,0-3.541-.825c-1.008.113-1.9.964-2.862.914-.4-.017-1.108-.311-1.215-.742-.2-.818.7-1.676,1.073-2.137a4.052,4.052,0,0,1,1.721-1.523,39.932,39.932,0,0,0,7.657-.544c.457-.4.429-1.382.945-1.643a11.205,11.205,0,0,1,1.824-.187,84.35,84.35,0,0,1,11.9.335,21.667,21.667,0,0,1,3.243.27c.644.287.9,1.389,1.238,1.658.757.6,3.473.692,4.731.725a12.981,12.981,0,0,1,2.888,0c.629.183,1.13.894,1.659,1.648.442.631,1.241,1.441,1.247,2.009a1.408,1.408,0,0,1-.816,1.145c-.329.067-.479-.207-.993-.326-.305-.07-.594.015-.847-.05-.873-.222-1.386-.725-2.407-.714C221.536,171.844,220.135,173.354,218.183,172.59Z" transform="translate(-181.041 22.471)"/><path class="b" d="M217.72,172.419c.566.222.733.866,1.088,1.308a13.849,13.849,0,0,0,3.158-.431c.982-.167,2.091-.716,2.94-.566.466.081,1.014.82,1.367,1.162a2.432,2.432,0,0,1,.953,1.523,1.91,1.91,0,0,1-1.364,1.724c-.8.152-1.243-.315-1.911-.442a10.326,10.326,0,0,0-5.815,1.06c.326,1.826,1,3.645.559,5.4a6.889,6.889,0,0,1-.675,1.141c-.823,1.469-1.872,1.972-3.8,2.771a17.915,17.915,0,0,1-3.634,1.077,13.828,13.828,0,0,1-7.968-.716,14.5,14.5,0,0,1-1.286-.81,29.116,29.116,0,0,1-2.723-1.832c-.485-.376-1.121-.77-1.223-1.167-.4-1.55,1.667-3.315,1.286-4.888-.166-.675-1.264-1.13-2.081-1.495a7.871,7.871,0,0,0-3.188-.834c-1.513.043-3.576,1.238-4.5-.1a2.253,2.253,0,0,1,.722-1.989,4.876,4.876,0,0,1,1.591-1.164c1.092-.281,2.272.348,3.458.4a7.913,7.913,0,0,0,2.74-.209c.59-.215.7-.916,1.376-1.23,1.188,1.4,3.354,2.044,6.248,2.165a35.613,35.613,0,0,0,5.263-.551c1.447-.146,2.9-.037,4.076-.246C215.652,173.262,216.68,172.515,217.72,172.419Z" transform="translate(-180.713 28.486)"/><path class="b" d="M228.543,179.28c.564,1.541-.126,2.623-.753,3.678a8.572,8.572,0,0,1-1.016,1.645c-.659.559-2.2.592-3.354.858-2.046.472-4.405,1.06-4.488,3.421-.043,1.193.5,1.708.424,2.873-.1,1.613-1.019,2.1-2.031,3.149-1.491,1.539-2.636,3.545-5.393,3.867a15.37,15.37,0,0,1-6.771-.6,19.319,19.319,0,0,1-2.794-1.97A11.485,11.485,0,0,1,201,195.174c-.8-.79-1.317-1.108-2.091-1.989a2.781,2.781,0,0,1-.9-2.089c-.026-.818.444-1.837.074-2.675-.3-.685-2.187-1.184-3.064-1.543a18.231,18.231,0,0,0-4.327-1.369c-.681-.932-1.143-2.359-1.848-3.543-.224-.372-.607-.86-.594-1.182.028-.633,1.143-1.206,1.721-1.521a8.2,8.2,0,0,1,2.437-1.116c.8.055,1.554.821,2.287,1.421.651.531,1.286,1.475,2.013,1.637.353.08,1.378-.163,1.828-.046s1.18,1.129,1.584,1.439c1.169.9,1.778,1.821,3.363,2.166,4.5.982,10.138.5,13.117-1.665a8.5,8.5,0,0,0,1.991-1.952c.229-.335.237-.59.546-.718.661-.27,1.508.207,2.322.013,1.055-.253,1.487-2.042,2.9-2.253A7.28,7.28,0,0,1,228.543,179.28Z" transform="translate(-181.24 33.61)"/><path class="b" d="M200.725,186.193c.294.875-.057,2,.215,3.021.113.405.751.925,1.09,1.308,1.389,1.578,2.947,3.552,5.663,4.083,2.614.509,6.122,1.373,8.8.34a12.666,12.666,0,0,0,2.146-1.391c.731-.485,1.576-.912,2.146-1.389a10.507,10.507,0,0,0,1.093-1.364,5.688,5.688,0,0,0,1.021-1.365c.335-1.09.044-2.041.2-3.1a7.753,7.753,0,0,1,2.3-1.042,10.294,10.294,0,0,0,2.655-.7c.509-.353.57-1.338,1.086-1.574a4.437,4.437,0,0,1,1.9-.118,7.784,7.784,0,0,1,.875,1.245c.79,1.034,1.891,1.756,2.744,2.746.4.461.76,1.043,1.166,1.591.381.512.914,1.01,1.234,1.515a9.509,9.509,0,0,1,.79,3.36c.376,2.42.553,4.858.957,7.363.344,2.107.675,4.485-.268,6.061a7.339,7.339,0,0,1-2.549,2.176c-.529.337-.949.851-1.447,1.232a28.777,28.777,0,0,0-2.9,2.326c-.472.461-1.051.833-1.376,1.228a12.156,12.156,0,0,0-1.608,3.278c-.958,2.388-1.924,4.288-3.067,6.692a7.4,7.4,0,0,1-1.967,2.934c-1.726,1.114-5.336.533-6.061,2.475.94.215,2.313-.026,2.9.561-.189,1.038.1,1.935-.287,2.61-.3.518-1.463.755-2.085,1.04a9.35,9.35,0,0,0-1.943,1.1c-.313,1.869.862,2.176,2.033,2.483.089,1.149.387,2.179-.357,2.612-.4.231-.947.094-1.33.244a1.571,1.571,0,0,0-.96,1.01c-.122.833.77,1.708.418,2.664-.3.808-1.85.833-2.283,1.536-.172.9.12,2.061-.431,2.474-.649.485-2.647-.15-2.842-1.125-.157-.762.5-1.223.226-2.116-.394-.355-1.19-.289-1.565-.664-.3-.868.189-1.6.015-2.322-.383-1.569-3.658-1.395-2.71-4.227.233-.7,1.045-1.019,1.939-1.241a5.682,5.682,0,0,0-2.3-1.913c-.392-.172-1.021-.157-1.278-.463a4.283,4.283,0,0,1-.348-2.664c.564-.633,2.146-.294,2.794-.845a8.763,8.763,0,0,0-1.319-2.079,27.3,27.3,0,0,1-2.559-.99,13.629,13.629,0,0,1-2.627-.919,8.387,8.387,0,0,1-1.6-1.931c-1.45-2.067-2.276-4.956-3.212-7.448a25.058,25.058,0,0,0-3.09-5.271c-1.484-.405-3.132-.292-4.179-1.092-.192-.146-.327-.446-.579-.688-.686-.66-1.154-1.219-1.954-2.063a4.1,4.1,0,0,1-1.547-2.775c-.242-2.381.548-4.812,1.151-7.491.562-2.512.982-5.01,1.58-7.075a8.559,8.559,0,0,1,1.563-2.224,16.8,16.8,0,0,1,5.861-4.72c1.108-.474,1.872.409,2.485.783A20.065,20.065,0,0,1,200.725,186.193Zm1.819,24.8c.883.575,2.623.115,3.369-.3a1.914,1.914,0,0,0-.1-1.264C204.1,209.359,202.858,209.731,202.543,210.989Zm19.128-.549c-.035-.159-.847-1-1.293-1.025-.085,0-.152.144-.205.146-.808.026-1.841.118-1.665,1.029.161.821,1.643.975,2.7,1.058C221.449,211.158,221.752,210.819,221.671,210.44Zm-17.812,8.046c.215.707,2.666.836,2.953-.142.2-.673-.192-1.149-.675-1.6C205.289,216.822,203.47,217.213,203.859,218.486Zm13.234.161c.561.5,1.693.385,2.548.57C220.3,217.178,216.944,216.445,217.092,218.647Z" transform="translate(-184.464 37.611)"/></g><path class="b" d="M284.069,191.312c-.668-3.269-1.641-5.559-3.876-7.441a33.735,33.735,0,0,0-13.152-6.423c-1.75-.45-3.606-.44-5.5-.918-1.733-.435-2.707-1.624-5.4-1.326a18.373,18.373,0,0,0-7.748,3.367,18.044,18.044,0,0,0-4.179,5.709,22.845,22.845,0,0,0-1.225,7.032,30.564,30.564,0,0,0-4.792,2.855c-1.695-1.439-.746-5.1-4.179-4.485a3.3,3.3,0,0,0-1.835,1.225c-1.2,1.654-1.365,5.3-2.549,6.015-.882.531-2.875.229-3.933.622-1.056-.392-3.049-.091-3.931-.622-1.184-.716-1.347-4.361-2.549-6.015a3.3,3.3,0,0,0-1.837-1.225c-3.434-.611-2.483,3.045-4.177,4.485a30.566,30.566,0,0,0-4.792-2.855,22.955,22.955,0,0,0-1.225-7.032A18.072,18.072,0,0,0,203,178.571a18.373,18.373,0,0,0-7.748-3.367c-2.7-.3-3.672.892-5.4,1.326-1.9.477-3.754.468-5.506.918a33.747,33.747,0,0,0-13.152,6.423c-2.231,1.882-3.206,4.172-3.874,7.441-.964,4.721.424,8.211,1.528,12.135.723,2.555,1.2,5.162,2.041,7.748,2.113,1.782,4.9,2.851,7.748,3.976.648,2.514,1.14,5.184,2.244,7.239-1.55,3.968,1,6.636,2.853,9.276.6.858,1.136,1.931,1.835,2.855a20.758,20.758,0,0,1,2.142,2.549c.8,1.635.9,3.461,1.53,5a11.762,11.762,0,0,0,2.342,4.179c.964.91,2.551,1.386,3.264,2.244-2.414-.409-2.583,1.65-2.242,3.569.688,3.87,2.675,6.814,4.69,9.583a18.93,18.93,0,0,0,4.588,4.792,27.6,27.6,0,0,0,7.85-.818,21.558,21.558,0,0,0,6.218-2.446c3.8-2.427,5.783-6.89,9.744-8.99,3.963,2.1,5.942,6.562,9.744,8.99a21.57,21.57,0,0,0,6.22,2.446,27.592,27.592,0,0,0,7.85.818,18.862,18.862,0,0,0,4.586-4.792c2.015-2.77,4.005-5.713,4.692-9.583.34-1.919.17-3.978-2.244-3.569.714-.858,2.3-1.334,3.264-2.244a11.766,11.766,0,0,0,2.344-4.179c.633-1.534.731-3.36,1.528-5a20.944,20.944,0,0,1,2.144-2.549c.7-.923,1.23-2,1.832-2.855,1.861-2.64,4.409-5.308,2.858-9.276,1.1-2.055,1.595-4.725,2.24-7.239,2.845-1.125,5.637-2.194,7.75-3.976.838-2.586,1.319-5.193,2.039-7.748C283.645,199.523,285.031,196.034,284.069,191.312Zm-73.526,64.333c-1.3.424-2.768.078-4.383.511-1.267-1.521-3.778-4.416-4.181-7.341-.368-2.67.322-5.576,1.735-6.932,3.528,1.364,5.672,4.116,9.176,5.5C214.324,250.443,213.534,254.677,210.543,255.645Zm11.217-11.519a13.641,13.641,0,0,1-10.2-4.079c-1.9-1.978-2.906-5.056-4.486-7.443a17.54,17.54,0,0,0-2.853-3.162c-1.036-.949-2.472-1.77-3.162-2.751a8.477,8.477,0,0,1-.918-7.036c2.135-.942,3.944.409,5.811.1.677-.109,1.584-1.228,2.344-1.221,2.135.02,2.385,4.919,2.753,6.83.6,3.143,2.505,5.818,5.811,6.116a7.4,7.4,0,0,1,.918,2.651c.018.5-.292,1.132-.2,1.632.139.784,1.4,1.217,1.937,1.63a16.929,16.929,0,0,0,1.935,1.53c-.664.592-1.471,1.121-1.121,2.244.235.755,1.419.675,1.632,1.426A3.263,3.263,0,0,1,221.76,244.126Zm27.644,4.688c-.4,2.925-2.914,5.82-4.179,7.341-1.615-.433-3.08-.087-4.385-.511-2.992-.968-3.782-5.2-2.346-8.259,3.5-1.388,5.646-4.14,9.176-5.5C249.082,243.238,249.772,246.145,249.4,248.814Zm.918-22.123c-.688.981-2.128,1.8-3.162,2.751A17.688,17.688,0,0,0,244.3,232.6c-1.576,2.387-2.581,5.465-4.485,7.443a13.638,13.638,0,0,1-10.2,4.079,3.215,3.215,0,0,1-.2-1.53c.211-.751,1.395-.672,1.632-1.426.348-1.123-.457-1.652-1.123-2.244a16.778,16.778,0,0,0,1.937-1.53c.533-.413,1.8-.845,1.939-1.63.087-.5-.224-1.132-.205-1.632a7.47,7.47,0,0,1,.918-2.651c3.306-.3,5.208-2.973,5.813-6.116.366-1.911.616-6.81,2.753-6.83.759-.007,1.669,1.112,2.342,1.221,1.869.307,3.678-1.043,5.813-.1A8.47,8.47,0,0,1,250.321,226.691Z" transform="translate(1322.443 319.271)"/><g transform="translate(1454.86 331.131)"><path class="c" d="M208.541,170.544H208c-.488.043-.894-.734-1.619-.971-.7-.228-1.484-.163-2.155-.433-2.335-.932-3.276-1.954-5.066-3.341a29.933,29.933,0,0,1-4.96-4.311c-.727-.831-1.98-1.665-2.157-2.479-.167-.777.163-2.181,0-3.234-.479-3.1-2.259-5.818-3.772-8.3-1.489-2.449-3.513-4.49-5.066-7.008-2.235-3.624-3.978-8.262-5.822-12.288a15.063,15.063,0,0,0-2.263-3.88c-1.476-1.436-4.192-1.963-5.391-3.774-1.314-1.985-1.228-4.459-2.263-6.575-1.859-3.8-4.967-5.991-8.732-7.87-1.706-.851-3.835-.977-5.5-2.048a15.425,15.425,0,0,1-2.588-2.8c-.738-.858-2.276-2.083-2.37-3.017-.092-.868.522-2.017.753-3.236.636-3.319,1.741-3.609,4.42-4.958,1.351-.679,2.779-1.523,3.989-.969,1.41.642,1.084,2.784,1.726,4.42a7.348,7.348,0,0,0,2.37,2.479,5.294,5.294,0,0,0,3.774,1.186,2.484,2.484,0,0,1,.213-1.724c.67-1.484,3.154-3.574,4.422-3.667a9.177,9.177,0,0,1,3.127.971c2.588.984,6.866,2.377,7.761,4.634.324.814.146,3.116,1.077,3.128.7.009,1.436-4.092,1.835-4.529.509-.557,2.5-1.119,3.556-1.615a38.991,38.991,0,0,1,8.085-2.483,29.065,29.065,0,0,1,4.205-1.077c1.974-.105,3.687.646,5.82.862.945,4.085,2.2,8.47,2.048,13.369-.048,1.569-.4,3.1-.431,4.742a113.3,113.3,0,0,0,1.291,15.522c.611,5.108,1.123,10.027,1.3,15.526a64.4,64.4,0,0,0,1.079,7.33,56.622,56.622,0,0,1-.864,19.294C209.5,168.9,209.6,170.5,208.541,170.544Z" transform="translate(-148.273 -88.867)"/></g><g transform="translate(1407.099 344.537)"><g transform="translate(14.974)"><path class="d" d="M141.094,176.881c-1.628-1.4-5.1.4-6.144-1.077a6.446,6.446,0,0,1,0-5.415c1.053-1.7,1.14-3.73,6.048-3.7,1.049.006,5.4,2.007,6.179,2.353,6.272,2.794,9.578,1.537,11.9,3.034.969.623.407,4.538.124,5.774a23.68,23.68,0,0,1-2.048,5.606c-1.212,2.309-2.953,4.653-4.1,7.437-1.254,3.058-1.724,6.736-1.724,11.535,0,15.659-1.153,31.059-.324,46.568.174,3.256.324,6.224.324,9.163a52.233,52.233,0,0,1-1.079,8.3c-.272,1.769-.117,4.3-.215,6.792-.081,1.968.2,5.41-1.51,5.5-1.556.085-1.088-1.56-2.155-2.477-.855-.734-2.407-.268-2.91-1.293-.64-1.3.577-2.757.968-3.883a23.858,23.858,0,0,0,1.188-6.144c.335-6.644-.279-13.446-.54-19.62-.266-6.348-1.077-12.551-1.077-19.08,0-7.26.215-13.82.215-19.942a59.4,59.4,0,0,0-.322-9.38,23.006,23.006,0,0,0-1.079-3.989,22.081,22.081,0,0,1-1.293-3.665C140.867,184.918,143.1,180.236,141.094,176.881Z" transform="translate(-127.27 -34.132)"/><path class="d" d="M138.851,172.417c1.61-.725,5.006.479,5.5,1.724s.15,3.086,0,4.636c-.15,1.523-.577,3.212-.54,4.418.054,1.624.971,3.049,1.079,4.851.037.62-.2,1.3-.215,2.05-.015.7.161,1.441.107,2.155-.27,3.515-2.836,5.905-2.8,8.838.019,1.521.947,2.82.971,4.529a30.371,30.371,0,0,1-.862,4.636c-.257,1.547-.59,3.117-.864,4.636-.542,3.016-1.378,6.192-1.617,9.269a85.386,85.386,0,0,0-.107,9.271c.081,2.139.544,4.261.648,6.47.216,4.538.265,9,.646,13.474a30.446,30.446,0,0,0,2.048,9.7c.472,1.138.849,2.368,1.293,3.449.512,1.241,1.994,2.61,1.728,3.883a2.639,2.639,0,0,1-1.4,1.4c-.635.231-1.545.1-2.372.322a17.038,17.038,0,0,0-2.372,1.077c-.851.4-1.919.646-2.481.973a8.637,8.637,0,0,0-1.832,1.939c-.414.544-.888,1.944-1.722,2.05-1.31.165-2.794-2.263-3.021-3.236-.346-1.5.072-3.75.324-5.606,1.706-12.512.329-27.535.862-40.746.457-11.3,3.025-21.18,4.744-31.479.279-1.665.731-3.33,1.079-4.958a44.618,44.618,0,0,0,1.077-4.96,16.59,16.59,0,0,0-.862-6.573c-.564-1.613-1.894-3-1.832-4.636C136.121,174.065,137.791,173.714,138.851,172.417Z" transform="translate(-130.526 -29.451)"/><path class="d" d="M161.6,234.944c-.483-1.156-.078-2.829-1.14-3.654-4.128-1.332-9.049-1.166-13.23-3.1-1.31-.609-2.272-1.622-3.441-2.152a13.956,13.956,0,0,0-5.186-1.058c-1.18.07-2.629,2.178-3.785,1.217-.727-.6-.107-2.392.318-3.262.357-.738,1.534-1.539,2.154-2.213,1.981-2.15,4.7-4.312,6.338-6.56,2.6-3.576,4.327-8.253,5.569-13.683,1.108-4.838.755-9.348,1.24-14.179.472-4.734,1.319-9.545,1.9-14.558.52-4.5.433-9.176.977-14.025,1.08-9.67,2.152-19,3.267-28.813.548-4.84.882-9.75-.216-13.339-.331-1.084-.9-2.15-1.327-3.369a9.878,9.878,0,0,1-.932-3.6c.176-2.659,1.956-4.856,2-7.052,1.436-1.228,3.5-1.358,5.315-1.92a10.176,10.176,0,0,1,10.014-4.457c5.115.777,8.98,4.153,9.437,7.667.67,5.125-3.077,9.8-5.824,11.72a9.844,9.844,0,0,0-1.9,1.273,26.109,26.109,0,0,0-2.975,5.676c-2.712,6.4-3.841,14.288-4.54,20.66-.47,4.259-.858,8.769-1.326,13.259-1.4,13.335-2.779,26.584-3.558,39.451-.507,8.39-.788,17.376,1.469,24.057.672,1.987,1.622,3.767,2.511,6.031.631,1.6,2.461,4.562,2.379,6.105-.1,1.972-1.549,4.085-2.4,4.381A4.753,4.753,0,0,1,161.6,234.944Z" transform="translate(-127.165 -95.04)"/></g><g transform="translate(0 243.671)"><path class="d" d="M140.917,230.684c-1.882.516-1.787,3-2.166,5.023-1.482.388-2.289-.81-2.627-1.943a2.8,2.8,0,0,1-2.054-1.369c-.313-2.764,1.585-2.512,3.654-3.535,1.785-.886,2.912-2.422,5.706-2.055,1.006.131,4.507,1.336,4.224,2.738-.115.559-1.143.694-1.826,1.029-.792.387-1.573,1.286-2.285,1.369A3.167,3.167,0,0,1,140.917,230.684Z" transform="translate(-112.569 -226.749)"/><path class="d" d="M147.448,234.223a4.041,4.041,0,0,1-2.855.686c-1.29-1.756-3.591-3.1-4.679-4.679.751-.727,2.089-1.671,3.08-1.6.746.056,1.833,1.108,2.4,1.713A7.706,7.706,0,0,1,147.448,234.223Z" transform="translate(-107.571 -225.153)"/><path class="d" d="M141.042,230.731c.411,2.379,0,6.908-1.943,7.189-3.343.487-2.407-7.757-.8-8.673A14.162,14.162,0,0,1,141.042,230.731Z" transform="translate(-110.182 -224.626)"/><path class="d" d="M137.894,231.943a2.57,2.57,0,0,1-1.369,3.65c-1.515.281-3.415-1.506-4.562-1.822-.6-2.076.734-4.742,2.738-4.111C135.9,230.038,136.33,231.834,137.894,231.943Z" transform="translate(-114.454 -224.354)"/><path class="d" d="M143.632,236.588c-1.423-.3-2.583-.218-3.424-1.141-.812-.89-1.014-4.5-.457-5.707C141.391,231.143,145.317,233.245,143.632,236.588Z" transform="translate(-107.978 -224.207)"/><path class="d" d="M141.658,234.629c.048,2.551-2.568,2.943-3.992,4.224a37.558,37.558,0,0,0-6.509,8.22c.4,1.264.54,3.193-.568,3.765-.971-.648-1.693-1.689-3.539-1.143a2.722,2.722,0,0,1-1.826-3.308c.168-.575.557-.664.912-1.141.6-.812,1.062-1.832,1.711-2.738,1.7-2.381,4.129-5.295,5.822-7.533a2.77,2.77,0,0,1,1.711-3.31c1.254-.722,1.456,1.228,2.511,1.709C139.319,234.032,141.127,233.346,141.658,234.629Z" transform="translate(-120.156 -222.706)"/><path class="d" d="M137.951,232.576a10.2,10.2,0,0,1,.113,2.281c-1.025.592-2.86.5-3.08-.57-.1-.487.716-2.485,1.369-2.627S137.315,232.262,137.951,232.576Z" transform="translate(-111.77 -222.589)"/><path class="d" d="M145.894,232.193c-.213,1.959-2.015,2.927-3.881,2.851a6.231,6.231,0,0,1,.684-2.4C143.628,232.426,144.794,231.867,145.894,232.193Z" transform="translate(-105.787 -222.206)"/><path class="d" d="M147.456,232.772c1.534,1.18,1.434,2.27,1.486,4.681.056,2.721,1.667,6.892,2.74,8.9.659,1.238,1.8,1.9.455,3.08a2.73,2.73,0,0,1-3.883,3.31,4.132,4.132,0,0,1-1.14-2.511c.024-.807.936-1.428,1.027-2.17.131-1.06-.536-2.6-.912-3.765a28.934,28.934,0,0,0-1.371-3.308,45.129,45.129,0,0,0-3.535-5.707c1.389-.553,2.808-1.071,3.421-2.4C146.387,232.924,146.76,232.685,147.456,232.772Z" transform="translate(-105.525 -221.646)"/><path class="d" d="M139.483,233.512v-.344c.9-.387,1.347.829,2.511,1.256.376.137.79.061,1.143.228a3.88,3.88,0,0,1,1.711,1.6,14.95,14.95,0,0,1,.113,2.74,41.468,41.468,0,0,0,2.055,9.587,17.435,17.435,0,0,1,1.029,2.738c.03.5-.24.821-.344,1.484a16.7,16.7,0,0,1-.115,1.713c-.685,1.658-4.727,1.487-5.136-.115-.363-1.421.79-3.484.912-4.908a20.751,20.751,0,0,0-.568-5.707,26.03,26.03,0,0,0-1.256-4.9C140.754,237.134,139.463,236.253,139.483,233.512Z" transform="translate(-107.938 -221.357)"/><path class="d" d="M140.989,234.221c.414,2.366-1.693,3.434-2.281,5.709a27.359,27.359,0,0,0-.342,5.136,30.491,30.491,0,0,0,.342,8.218c.379,1.758.971,3.3.115,5.023-1.513,1.062-6.146,1.493-6.734-.574a13.183,13.183,0,0,1,.228-2.738c.215-1.1,1.006-2.351,1.371-3.88a32.634,32.634,0,0,0,.683-9.472c-.1-1.693-.59-3.719-.34-4.8.185-.807,1.358-1.121,1.826-2.168.207-.461.163-1.106.455-1.484C137.616,233.853,138.75,234.942,140.989,234.221Z" transform="translate(-114.239 -221.27)"/><path class="d" d="M141.334,233.319c.381.646-.1,1.175,0,1.939.072.529.529.9.57,1.369.117,1.291-.875,3.156-.8,5.023a53.736,53.736,0,0,0,1.254,9.128,21.392,21.392,0,0,1,.8,2.627c-.03.474-.459.659-.686,1.256-.329.866-.265,1.584-.685,1.941-.84.71-2.559.525-3.767.228a4.919,4.919,0,0,1-1.254-2.853c.044-.964,1.138-2.91,1.369-4.224.736-4.185-.512-8.816-1.369-12.555.265-.84.942-1.264.8-2.512C139.686,235.347,140.346,234.127,141.334,233.319Z" transform="translate(-110.246 -221.164)"/><path class="d" d="M128.7,242.374c.858.061,1.393-.205,2.283-.117,2.313,1.482.662,4.829-1.713,5.136-.142,1.018-1.01,2.063-1.141,3.2-.1.871.431,1.859-.457,2.4-.546.017-.72-.387-1.256-.457-1.378-.185-3.643.945-3.652-1.027,0-.9,1.023-1.178,1.371-2.055a27.177,27.177,0,0,0,1.6-4.794c.255-1.857-.536-2.977.914-4C127.593,240.968,128.061,241.756,128.7,242.374Z" transform="translate(-122.15 -214.925)"/><path class="d" d="M149.792,243.313c1.117,1.01.348,3.128.228,5.021a29.348,29.348,0,0,0,0,3.994c.109,1.375.718,2.612-.113,3.539-1.463-.507-2.442.487-3.767-.115-.42-1.114.392-1.852.683-2.625-.383-1.576-.257-3.125-.57-4.566-.322-1.478-1.6-2.725-1.027-4.109C146.819,244.852,148.86,244.488,149.792,243.313Z" transform="translate(-103.18 -212.668)"/><path class="d" d="M146.441,260.056a11.854,11.854,0,0,0-4.109.117c-.855-1.068.24-2,.457-3.086a15.787,15.787,0,0,0-.229-3.423,17.528,17.528,0,0,0-.228-3.423c-.2-.594-1-1.03-1.142-1.6a11.2,11.2,0,0,1,.113-2.968c1.28-.092,1.928.468,2.969.342.57-.068,1.41-1,2.054-.914,1.759.244.105,3.138,0,3.994C145.936,252.276,147.638,257.379,146.441,260.056Z" transform="translate(-106.563 -211.151)"/><path class="d" d="M142.376,262.17a4.726,4.726,0,0,0-4.337.117c-.683-.7-.065-1.906.342-2.514-.13-4.053.636-9.006-1.486-11.069.061-.816-.168-1.922.229-2.4,1.413-.052,1.61.516,2.855.457,1.125-.052,2.964-1.6,3.424-.228.542,1.617-1.129,3.78-1.256,4.906a29.512,29.512,0,0,0,.342,5.136c.13,1.678.514,3.284.572,4.908C142.741,261.621,142.639,261.974,142.376,262.17Z" transform="translate(-110.147 -210.411)"/><path class="d" d="M125.9,251.321c0,1.932-.6,4.364-2.283,4.222-1.878-.155-1.252-3.591,0-4.449.137-1.428-.27-2.322-.229-3.654,2.072.141,4.313-.8,4.451,1.029C127.932,249.676,126.511,250.363,125.9,251.321Z" transform="translate(-122.432 -209.263)"/><path class="d" d="M139.214,248.236a28.956,28.956,0,0,0-1.371,5.138,21.682,21.682,0,0,0-.344,6.05c.218,1.138,1.487,2.163.229,3.308-.751.268-1.269-.479-2.281-.457-1.132.024-2.155,1.051-2.74-.111-.389-.773.274-1.785.685-2.514-.142-2.627.277-5.247-.228-7.648-.376-1.78-1.641-3.474-.229-4.677C135.164,248.2,138.2,246.288,139.214,248.236Z" transform="translate(-114.059 -209.26)"/><path class="d" d="M149.71,250.64a56.247,56.247,0,0,1-.685,7.078c-.993-.137-1.819.505-2.855.229a1.963,1.963,0,0,1,.455-1.941,8.919,8.919,0,0,0-.912-5.023C146.215,249.97,148.741,250.2,149.71,250.64Z" transform="translate(-102.641 -206.758)"/><path class="d" d="M146.5,253.847c.1,2.616-.679,5.326-.685,8.216-1.21-.067-2.829.435-3.652-.113-.2-.792.66-1.156.8-1.943a9.278,9.278,0,0,0-1.256-5.478C142.416,253.035,144.949,253.131,146.5,253.847Z" transform="translate(-106.05 -204.141)"/><path class="d" d="M142.532,255.772c.22,2.662-.9,5.809-.686,8.675.072.914.575,1.891-.113,2.625a35.769,35.769,0,0,0-4-.342c-.363-.925.438-1.186.573-2.055a34.855,34.855,0,0,0-.457-6.507c-.142-.833-.581-1.4-.457-1.939C137.883,254.075,141.178,254.468,142.532,255.772Z" transform="translate(-109.731 -202.986)"/><path class="d" d="M148.929,254.915c-.052.816-.57,1.371-.57,2.281,0,.894.662,3.478-.914,3.423-1.476-.056-.84-2.133-.912-3.654-.044-.879-.568-1.267-.572-2.05A4.144,4.144,0,0,1,148.929,254.915Z" transform="translate(-102.431 -203.039)"/><path class="d" d="M137.6,256.628c.091,1.961-.908,3.976-.8,5.822.063,1.067,1,2.264-.115,2.969a2.819,2.819,0,0,1-1.6-.57c-.5.22-.831.612-1.6.57-.945-.588-.031-1.273.117-2.168.366-2.231-.635-5.084-1.029-6.849C134.083,255.616,136.486,255.264,137.6,256.628Z" transform="translate(-113.812 -202.132)"/><path class="d" d="M143.05,261.748c-.07-1.147-.875-1.565-.914-2.742.914-.981,3.123-.986,3.424.115.161.594-.505,1.5-.572,2.054-.215,1.795.525,4.1-1.141,4.224S141.908,262.631,143.05,261.748Z" transform="translate(-105.683 -199.943)"/><path class="d" d="M136.829,261.742c-.564,2.621,1.23,4.387-.344,6.163a4.851,4.851,0,0,1-1.369.115c-.9-.568-1.9-2.555-.457-3.2-.4-.485-.154-.9-.457-1.482-.339-.646-1.367-.992-1.254-1.6C133.168,260.535,136.082,260.92,136.829,261.742Z" transform="translate(-113.501 -197.655)"/><path class="d" d="M141.7,266.63c-.409.944-.659,2.492-1.6,2.625-1.506.211-2.451-2.614-1.141-3.654.154-.927-1.452-2.44-1.256-3.423.287-1.428,3.65-.661,3.994.457C142.257,264.458,140.018,265.422,141.7,266.63Z" transform="translate(-109.466 -197.293)"/></g></g><g transform="translate(1579.993 331.131)"><path class="c" d="M218.6,170.544h.54c.485.043.892-.734,1.615-.971.7-.228,1.487-.163,2.155-.433,2.337-.932,3.277-1.954,5.069-3.341a30,30,0,0,0,4.958-4.311c.725-.831,1.978-1.665,2.155-2.479.168-.777-.163-2.181,0-3.234.481-3.1,2.261-5.818,3.772-8.3,1.493-2.449,3.515-4.49,5.067-7.008,2.235-3.624,3.976-8.262,5.82-12.288a15.169,15.169,0,0,1,2.265-3.88c1.478-1.436,4.19-1.963,5.391-3.774,1.314-1.985,1.227-4.459,2.261-6.575,1.861-3.8,4.969-5.991,8.734-7.87,1.706-.851,3.833-.977,5.5-2.048a15.488,15.488,0,0,0,2.586-2.8c.738-.858,2.276-2.083,2.37-3.017.091-.868-.52-2.017-.755-3.236-.635-3.319-1.741-3.609-4.418-4.958-1.351-.679-2.779-1.523-3.989-.969-1.41.642-1.084,2.784-1.726,4.42a7.336,7.336,0,0,1-2.372,2.479,5.284,5.284,0,0,1-3.77,1.186,2.506,2.506,0,0,0-.216-1.724c-.67-1.484-3.153-3.574-4.422-3.667a9.16,9.16,0,0,0-3.123.971c-2.59.984-6.869,2.377-7.763,4.634-.322.814-.146,3.116-1.079,3.128-.7.009-1.434-4.092-1.833-4.529-.509-.557-2.5-1.119-3.556-1.615a38.973,38.973,0,0,0-8.087-2.483,28.943,28.943,0,0,0-4.205-1.077c-1.972-.105-3.683.646-5.82.862-.942,4.085-2.2,8.47-2.046,13.369.048,1.569.4,3.1.431,4.742a113.01,113.01,0,0,1-1.293,15.522c-.611,5.108-1.123,10.027-1.293,15.526a64.845,64.845,0,0,1-1.08,7.33,56.67,56.67,0,0,0,.862,19.294C217.633,168.9,217.539,170.5,218.6,170.544Z" transform="translate(-215.972 -88.867)"/></g><path class="d" d="M292.771,188.221c2.49-6.213,2.625-17.422-.618-22.869,1.018-2.339.823-5.978.353-9.447-.492-3.628-1-6.2-2.914-8.124a16.1,16.1,0,0,0,.881-3.709c.437-5.613-2.261-9.236-5.119-11.742.209-4.6-.455-9.167-2.207-12.36-.45-.816-1.635-1.591-1.854-2.474a14.026,14.026,0,0,1,0-2.914c-.27-4.048-2.923-6.632-5.3-8.829.24-5.154-2.209-7.619-5.119-9.624-.3-5.822-4.052-8.19-8.124-10.242-1.308-1.885-2.47-4.144-4.59-5.474a33.89,33.89,0,0,0-4.945-2.294c-1.806-.729-3.548-1.728-4.945-2.207-1.212-.418-1.8.57-3,.881-.932.246-1.837-.178-2.47.533.675,1.393,2.346.842,3.532.969a23.864,23.864,0,0,1,3.883.971c2.091.723,4.544,2.69,4.856,5.032.344,2.568-.331,5.946-1.589,7.506a13.483,13.483,0,0,1-2.736,1.943,14.424,14.424,0,0,1-3,1.678c-2.27.9-4.261,2.259-7.239,1.941-.7-.709-.692-1.75-1.323-2.383a4.872,4.872,0,0,0-4.239-.971c-.87.168-1.51.886-2.472,1.236a12.177,12.177,0,0,1-6.089,0c-.964-.35-1.6-1.067-2.472-1.236a4.868,4.868,0,0,0-4.239.971c-.633.633-.624,1.674-1.326,2.383-2.977.318-4.966-1.045-7.239-1.941a14.353,14.353,0,0,1-3-1.678,13.4,13.4,0,0,1-2.738-1.943c-1.256-1.56-1.933-4.938-1.589-7.506.311-2.342,2.766-4.309,4.855-5.032a23.9,23.9,0,0,1,3.887-.971c1.184-.128,2.857.424,3.53-.969-.635-.71-1.537-.287-2.47-.533-1.2-.311-1.789-1.3-3-.881-1.4.479-3.14,1.478-4.945,2.207a33.775,33.775,0,0,0-4.943,2.294c-2.122,1.33-3.284,3.589-4.592,5.474-4.072,2.052-7.824,4.42-8.122,10.242-2.912,2.005-5.362,4.47-5.121,9.624-2.376,2.2-5.027,4.781-5.3,8.829a14.024,14.024,0,0,1,0,2.914c-.218.882-1.406,1.658-1.854,2.474-1.752,3.193-2.418,7.765-2.207,12.36-2.857,2.507-5.554,6.129-5.121,11.742a16.1,16.1,0,0,0,.882,3.709c-1.913,1.926-2.422,4.5-2.914,8.124-.47,3.469-.664,7.108.353,9.447-3.241,5.447-3.108,16.656-.618,22.869a32.815,32.815,0,0,0-1.765,8.033,31.682,31.682,0,0,0,1.058,10.331,19.93,19.93,0,0,1,.971,2.825,16.954,16.954,0,0,1-.265,2.207,33.227,33.227,0,0,0,1.06,11.038c.359,1.336,1.018,2.509,1.325,3.709.607,2.381.431,4.755,1.412,7.151a15.947,15.947,0,0,0,1.854,2.912c.4.522,1.569,2.6,2.474,2.12.531-.287.377-1.623.176-2.385a34.422,34.422,0,0,0-2.383-6.268c1.717.648,2.8,2.39,5.386,1.943a13.135,13.135,0,0,0,2.559-1.149,25.579,25.579,0,0,0,6.623-4.679c2.7-2.494,4.546-5.685,6.534-8.475,4.344-6.1,6.864-13.613,9.8-20.308a32.757,32.757,0,0,0,10.155-15.45c.531-1.73.786-3.593,1.413-5.474.653-1.97,1.857-4,2.474-6.005.226-.738.241-1.6.529-2.294.544-1.319,2.091-2.575,2.823-3.8,1.221-2.031,1.846-4.551,2.827-6.533.3-.614.525-1.51,1.236-1.767a53.266,53.266,0,0,1,.882,6.973c.157,1.857,1.1,4.819,2.561,5.3a17.17,17.17,0,0,1,3.264,0c1.456-.479,2.4-3.441,2.56-5.3a53.592,53.592,0,0,1,.882-6.973c.71.257.936,1.153,1.236,1.767.982,1.981,1.606,4.5,2.827,6.533.734,1.221,2.279,2.477,2.825,3.8.287.69.3,1.556.529,2.294.616,2,1.819,4.035,2.474,6.005.623,1.882.881,3.745,1.412,5.474a32.781,32.781,0,0,0,10.153,15.45c2.936,6.7,5.456,14.21,9.8,20.308,1.985,2.79,3.826,5.981,6.531,8.475a25.662,25.662,0,0,0,6.621,4.679,13.159,13.159,0,0,0,2.562,1.149c2.583.448,3.669-1.3,5.384-1.943a34.282,34.282,0,0,0-2.383,6.268c-.2.762-.355,2.1.176,2.385.9.485,2.076-1.6,2.474-2.12a15.732,15.732,0,0,0,1.852-2.912c.98-2.4.807-4.769,1.415-7.151.307-1.2.966-2.374,1.323-3.709a33.228,33.228,0,0,0,1.06-11.038,16.951,16.951,0,0,1-.265-2.207,19.925,19.925,0,0,1,.971-2.825,31.68,31.68,0,0,0,1.058-10.331A32.642,32.642,0,0,0,292.771,188.221Zm-99.5-97.035a10.544,10.544,0,0,1,2.209-1.943c.074-.015.081.035.087.087.039,5.358,2.468,7.395,5.915,9.184,1.306.677,2.977,1.223,4.592,1.854a22.411,22.411,0,0,0,3.09,1.058c2.281.535,5.16.08,7.595,1.062a9.212,9.212,0,0,1,4.061,3.885,3.18,3.18,0,0,1,.442,2.207,20.017,20.017,0,0,1-9.006,2.825,11.493,11.493,0,0,1-6.712-1.149,30.39,30.39,0,0,1-3.532-3.443c-1.162-1.129-2.7-2.094-3.8-3.091-.818-.747-1.473-1.674-2.294-2.472a18.887,18.887,0,0,1-2.472-2.294A8.012,8.012,0,0,1,193.269,91.187ZM180.377,222.92c-1.832,1.253-3.828,3.079-7.151,2.472-1.743-.32-3.134-3.365-3.709-5.121A25.354,25.354,0,0,1,168.459,214c1.991,1.726,3.959,5.452,7.328,5.826,5.637.631,8.954-2.2,12.1-4.239A31.3,31.3,0,0,1,180.377,222.92Zm11.3-20.4c-1.981,2.9-6.257,5.78-10.066,7.328-2.148.873-5.337,2.139-7.944.971a8.98,8.98,0,0,1-3.091-3.358,26.6,26.6,0,0,1-2.561-15.979,25.7,25.7,0,0,1,3.354,4.856c1.65,2.849,3.511,6.218,8.124,5.561,4.168-.592,8.442-2.975,12.1-4.15C193.446,198.678,192.529,201.279,191.679,202.524Zm5.65-14.481a32.9,32.9,0,0,1-4.768,2.472c-1.741.762-3.273,1.66-4.945,2.3-2.105.8-5.576,2.488-8.211,1.5-2.477-.929-3.778-3.412-5.3-5.739-1.1-1.682-2.768-3.09-3.709-4.943-1.454-2.866-1.983-7.608-1.5-12.1.074-.015.083.035.089.091.907,2.035,2.531,3.833,3.883,5.826a37.823,37.823,0,0,0,4.063,5.563c2.15,2.148,4.736,4.17,9.36,3.794a20.721,20.721,0,0,0,4.59-1.058,44.246,44.246,0,0,0,11.393-5.386C202.93,184.708,200.018,186.318,197.33,188.044Zm5.032-15.012a31.785,31.785,0,0,1-3.708,2.738c-2.71,1.643-5.484,3.41-9.182,3.709-6.792.548-9.152-4.177-12.36-7.506a31.058,31.058,0,0,1-5.652-8.653c-1.38-2.934-2.115-7.526-.353-11.3.05-.107.026-.179.091-.265.074-.017.083.033.087.087a27.409,27.409,0,0,1,2.472,4.063,40.943,40.943,0,0,0,2.736,3.708c1.9,2.5,3.075,5.43,5.3,7.593a14.38,14.38,0,0,0,4.061,2.738c4.951,2.15,10.549.716,15.1-.884,1.4-.494,3.314-1.243,4.327.442A7.921,7.921,0,0,1,202.362,173.032Zm1.413-9.8a9.544,9.544,0,0,1-2.207.7,11.748,11.748,0,0,1-4.853.62,22.583,22.583,0,0,1-10.686-4.325,36.431,36.431,0,0,1-4.152-3.974,53.107,53.107,0,0,1-3.441-4.679,38.449,38.449,0,0,1-3.267-4.856,17.364,17.364,0,0,1-2.209-5.828c-.22-2.387.67-3.412,1.589-4.855-.017-.076.037-.085.089-.089.993,1.8,2.4,2.971,3.178,4.412.557,1.03.9,2.536,1.5,3.621a25.819,25.819,0,0,0,6.092,6.977c.921.653,2.033,1.108,3,1.765.918.623,1.819,1.306,2.738,1.943,1.682,1.169,4,3.154,5.915,3.445a12.9,12.9,0,0,0,3.974-.178c1.191-.2,2.56-.794,3.708-.618A2.539,2.539,0,0,1,206.513,159C206.739,160.576,204.878,162.607,203.775,163.232Zm7.328-8.477c1.338-1.073,2.849-1.974,4.152-3.088C215.358,152.881,212.683,157.135,211.1,154.755Zm6.621,3.885c-.9,1.016-2.422,2.6-3.883,1.854a6.8,6.8,0,0,1,2.205-3.177,27.268,27.268,0,0,0,3.09-3c.078-.015.087.035.089.089A5.79,5.79,0,0,1,217.725,158.641Zm2.3-18.806c-.131.6-1.1,1.234-1.589,1.678-1.739,1.565-3.591,3.191-5.3,4.5-1.253.962-2.326,1.906-3.709,2.825a11.913,11.913,0,0,1-9,2.3c-2.1-.216-4.481-1.53-6.621-2.474-5.308-2.337-7.822-7.171-11.391-11.213-.731-.827-1.656-1.425-2.3-2.207-2.5-3.062-5.284-10.129-1.856-13.774.078-.015.085.033.089.089a19.1,19.1,0,0,0,4.063,7.946,26.668,26.668,0,0,0,5.739,5.739c.679.49,1.473.871,2.207,1.325.718.442,1.365,1.047,2.03,1.412,1.471.8,3.264,1.314,4.856,2.207a18.475,18.475,0,0,0,5.036,2.033,7.717,7.717,0,0,0,1.678.087c5.715-.25,11.347-3.783,15.626-5.474C219.656,137.87,220.272,138.7,220.022,139.835Zm.263-10.418c-.553.8-2.294,1.495-3.265,2.031a69.723,69.723,0,0,1-7.152,3.356,17.847,17.847,0,0,1-3.708,1.5c-3.9.609-6.662-1.8-8.919-3.267-1.023-.668-2.105-1.319-3.09-2.031-2.059-1.489-3.537-3.674-5.3-4.943-.52-.377-1.413-.692-1.765-.971a17.2,17.2,0,0,1-2.118-2.738c-1.323-1.759-2.807-3.589-3.091-6.357a9.765,9.765,0,0,1,1.413-6.179c.076-.017.083.033.089.089,1.027,2.15,1.523,4.572,2.825,6.708a18.02,18.02,0,0,0,2.561,2.738,35.939,35.939,0,0,0,5.563,4.855c1.119.742,1.946,1.671,2.912,2.3a25,25,0,0,0,2.827,1.323,9.281,9.281,0,0,0,3.972,1.236,14.9,14.9,0,0,0,3.621-.794c1.2-.307,2.523-.409,3.708-.707,1.65-.413,3.221-1.312,4.856-1.854a35.355,35.355,0,0,0,4.679-1.943A7.757,7.757,0,0,1,220.285,129.417Zm1.5-12.1a28.5,28.5,0,0,1-4.945,2.031c-2.229.727-4.436,1.911-7.151,2.118a21.61,21.61,0,0,1-6.446-.178,23.657,23.657,0,0,1-3.445-1.678,30.89,30.89,0,0,1-8.917-6.444,30.116,30.116,0,0,1-3-3.621c-1.2-1.758-1.617-6.213-.883-8.3a6.071,6.071,0,0,1,1.236-1.765A34.739,34.739,0,0,0,193,108.05a22.873,22.873,0,0,0,2.823,2.385c1.809,1.471,3.523,2.536,5.474,3.885a12.175,12.175,0,0,0,4.5,2.383,7.065,7.065,0,0,0,3.885.089c.662-.094,1.4-.05,2.031-.178,1.589-.32,3.291-.966,4.943-1.413a19.027,19.027,0,0,0,4.5-1.765A7.077,7.077,0,0,1,221.787,117.321Zm16.242-10.947a9.193,9.193,0,0,1,4.061-3.885c2.435-.982,5.313-.527,7.595-1.062a22.328,22.328,0,0,0,3.09-1.058c1.615-.631,3.286-1.177,4.592-1.854,3.445-1.789,5.874-3.826,5.915-9.184.006-.052.013-.1.089-.087a10.518,10.518,0,0,1,2.205,1.943,8.016,8.016,0,0,1-.174,7.77,18.766,18.766,0,0,1-2.472,2.294c-.825.8-1.478,1.724-2.3,2.472-1.091,1-2.633,1.963-3.8,3.091-1.125,1.088-2.54,2.858-3.532,3.443a11.492,11.492,0,0,1-6.71,1.149,20,20,0,0,1-9.006-2.825A3.17,3.17,0,0,1,238.029,106.374Zm-.352,7.062a18.982,18.982,0,0,0,4.5,1.765c1.652.448,3.352,1.093,4.945,1.413.631.128,1.369.083,2.03.178a7.071,7.071,0,0,0,3.887-.089,12.159,12.159,0,0,0,4.5-2.383c1.954-1.349,3.667-2.414,5.476-3.885a23.011,23.011,0,0,0,2.823-2.385,34.736,34.736,0,0,0,4.768-8.564,6.15,6.15,0,0,1,1.238,1.765c.733,2.087.311,6.542-.886,8.3a29.927,29.927,0,0,1-3,3.621,30.865,30.865,0,0,1-8.917,6.444,23.646,23.646,0,0,1-3.443,1.678,21.623,21.623,0,0,1-6.447.178c-2.712-.207-4.921-1.391-7.151-2.118a28.3,28.3,0,0,1-4.943-2.031A7.045,7.045,0,0,1,237.678,113.436Zm.263,10.331a35.377,35.377,0,0,0,4.681,1.943c1.637.542,3.206,1.441,4.856,1.854,1.186.3,2.5.4,3.709.707a14.826,14.826,0,0,0,3.619.794,9.289,9.289,0,0,0,3.972-1.236A24.81,24.81,0,0,0,261.6,126.5c.969-.627,1.795-1.556,2.916-2.3a36.1,36.1,0,0,0,5.561-4.855,17.722,17.722,0,0,0,2.559-2.738c1.306-2.137,1.8-4.559,2.827-6.708.006-.055.013-.105.089-.089A9.729,9.729,0,0,1,276.966,116c-.285,2.768-1.767,4.6-3.09,6.357a17.087,17.087,0,0,1-2.118,2.738c-.353.279-1.245.594-1.767.971-1.761,1.269-3.238,3.454-5.3,4.943-.984.712-2.068,1.364-3.091,2.031-2.253,1.471-5.017,3.876-8.916,3.267a17.822,17.822,0,0,1-3.709-1.5,69.91,69.91,0,0,1-7.152-3.356c-.969-.537-2.714-1.234-3.265-2.031A7.775,7.775,0,0,1,237.941,123.767Zm3.18,34.874a5.806,5.806,0,0,1-1.5-4.237c0-.054.015-.1.089-.089a27.133,27.133,0,0,0,3.091,3,6.812,6.812,0,0,1,2.207,3.177C243.541,161.236,242.025,159.656,241.121,158.641Zm2.472-6.973c1.3,1.114,2.812,2.015,4.148,3.088C246.164,157.135,243.489,152.881,243.592,151.668Zm2.118-5.652c-1.709-1.312-3.56-2.938-5.295-4.5-.5-.444-1.462-1.079-1.591-1.678-.25-1.138.364-1.965.442-3,4.279,1.691,9.907,5.225,15.628,5.474a7.738,7.738,0,0,0,1.678-.087,18.488,18.488,0,0,0,5.03-2.033c1.6-.894,3.386-1.4,4.856-2.207.666-.364,1.315-.969,2.031-1.412.733-.453,1.528-.834,2.207-1.325a26.666,26.666,0,0,0,5.739-5.739,19.1,19.1,0,0,0,4.061-7.946c.006-.055.015-.1.089-.089,3.432,3.645.651,10.712-1.854,13.774-.638.783-1.565,1.38-2.3,2.207-3.569,4.042-6.083,8.877-11.389,11.213-2.142.944-4.525,2.257-6.621,2.474a11.925,11.925,0,0,1-9.008-2.3C248.034,147.921,246.965,146.978,245.711,146.016ZM252.332,159a2.542,2.542,0,0,1,1.767-1.678c1.149-.176,2.514.42,3.709.618a12.889,12.889,0,0,0,3.972.178c1.917-.29,4.231-2.276,5.917-3.445.919-.636,1.819-1.319,2.738-1.943.968-.657,2.081-1.112,3-1.765a25.754,25.754,0,0,0,6.092-6.977c.6-1.084.945-2.59,1.5-3.621.783-1.441,2.189-2.614,3.182-4.412.052,0,.1.013.085.089.923,1.443,1.813,2.468,1.591,4.855a17.323,17.323,0,0,1-2.209,5.828,38.827,38.827,0,0,1-3.265,4.856,53.539,53.539,0,0,1-3.445,4.679,36.266,36.266,0,0,1-4.148,3.974,22.608,22.608,0,0,1-10.684,4.325,11.757,11.757,0,0,1-4.856-.62,9.574,9.574,0,0,1-2.207-.7C253.966,162.607,252.106,160.576,252.332,159ZM253.57,169.5c1.012-1.685,2.923-.936,4.326-.442,4.547,1.6,10.146,3.034,15.1.884a14.37,14.37,0,0,0,4.059-2.738c2.224-2.163,3.4-5.09,5.3-7.593a41.3,41.3,0,0,0,2.736-3.708,27.419,27.419,0,0,1,2.474-4.063c.006-.054.011-.1.087-.087.063.085.037.157.091.265,1.761,3.774,1.025,8.366-.355,11.3a31.059,31.059,0,0,1-5.652,8.653c-3.206,3.328-5.571,8.053-12.358,7.506-3.7-.3-6.473-2.067-9.184-3.709a31.78,31.78,0,0,1-3.708-2.738A7.917,7.917,0,0,1,253.57,169.5Zm7.944,18.541c-2.684-1.726-5.6-3.336-4.941-7.682a44.134,44.134,0,0,0,11.389,5.386,20.737,20.737,0,0,0,4.592,1.058c4.62.376,7.208-1.647,9.358-3.794a37.821,37.821,0,0,0,4.061-5.563c1.352-1.993,2.977-3.791,3.887-5.826,0-.055.011-.105.087-.091.481,4.49-.048,9.232-1.5,12.1-.942,1.854-2.61,3.262-3.711,4.943-1.517,2.327-2.818,4.81-5.3,5.739-2.635.988-6.1-.7-8.209-1.5-1.674-.636-3.2-1.534-4.945-2.3A33.109,33.109,0,0,1,261.514,188.044Zm27.814,32.226c-.574,1.756-1.967,4.8-3.709,5.121-3.323.607-5.319-1.219-7.151-2.472a31.34,31.34,0,0,1-7.508-7.33c3.143,2.037,6.459,4.869,12.1,4.239,3.369-.374,5.337-4.1,7.328-5.826A25.44,25.44,0,0,1,289.328,220.27Zm-1.058-12.8a9,9,0,0,1-3.093,3.358c-2.607,1.167-5.8-.1-7.946-.971-3.807-1.549-8.083-4.424-10.063-7.328-.849-1.245-1.769-3.846.087-4.77,3.654,1.175,7.928,3.558,12.094,4.15,4.616.657,6.475-2.712,8.124-5.561a25.962,25.962,0,0,1,3.356-4.856A26.589,26.589,0,0,1,288.27,207.466Z" transform="translate(1320.094 230.984)"/><path class="c" d="M254.1,90.878c-6.444.37-9.955,3.733-16.638,4.34-3.332.3-6.516.035-9.7.144a28.773,28.773,0,0,1-9.26-1.156c-1.352-.359-2.525-.955-3.907-1.3-3.26-.821-11.752-1.049-12.155-4.34-.228-1.878,2.227-5,3.474-5.21a23.714,23.714,0,0,1,3.038.435c2.024.487,4.459,1.4,6.945,2.026,2.451.618,4.627,1.926,6.512,2.316,1.029.211,2.065.009,3.04.142,2.163.3,5.8,1.36,9.113,1.158a47.9,47.9,0,0,0,9.115-1.158c4.74-1.265,11.4-3.708,14.76.435a5.1,5.1,0,0,1,1.3,2.17,2.936,2.936,0,0,1-2.459,3.328C255.316,94.167,255.588,91.78,254.1,90.878Z" transform="translate(1352.537 234.186)"/><path class="c" d="M170.6,90.878c6.446.37,9.955,3.733,16.64,4.34,3.33.3,6.51.035,9.693.144a28.778,28.778,0,0,0,9.261-1.156c1.354-.359,2.522-.955,3.907-1.3,3.26-.821,11.752-1.049,12.151-4.34.231-1.878-2.224-5-3.471-5.21a23.759,23.759,0,0,0-3.038.435c-2.024.487-4.459,1.4-6.945,2.026-2.451.618-4.627,1.926-6.512,2.316-1.029.211-2.065.009-3.038.142-2.163.3-5.8,1.36-9.115,1.158a47.937,47.937,0,0,1-9.117-1.158c-4.74-1.265-11.4-3.708-14.758.435a5.1,5.1,0,0,0-1.3,2.17,2.939,2.939,0,0,0,2.461,3.328C169.38,94.167,169.108,91.78,170.6,90.878Z" transform="translate(1320.714 234.186)"/><g transform="translate(1484.663 555.496)"><path class="c" d="M194.833,203.214h2.429c1.911,1.315,1.869.766,2.836,1.621,2.6,2.3,5.563,10.938,3.042,16-.729,1.462-1.6.851-3.243,1.822-1.541.912-2.657,3.008-3.848,4.459-1.413,1.719-2.953,3.247-3.648,4.862-2.507,5.805-1.391,15.489-1.822,23.3-.144,2.583-.842,5.138-1.014,7.9-.7,11.319.405,23.949.405,36.674,0,12.473.248,25.118.2,36.67a159.907,159.907,0,0,0,3.241,34.239,48.44,48.44,0,0,0,8.712,19.25c1.536,2.131,3.31,3.382,4.052,5.467,1,2.816.189,6.8-.81,9.319-.686,1.73-1.5,3.548-4.457,3.445-3.665-.126-4.041-4.309-5.267-7.091-.886-2-1.88-4.337-4.052-4.86-2.858-.692-6.007.418-7.7,1.214-2.794,1.314-4.8,7.141-7.7,7.293-1.423.078-4.821-1.965-5.267-3.647-.381-1.432.074-4.105.2-5.874a41.919,41.919,0,0,1,.812-5.469c.714-3.443,2.535-6.357,3.241-9.119,1.321-5.156.884-11.448,1.215-17.626.968-18.131,1.216-37,1.216-55.717,0-12.244-1.661-23.378-2.431-35.457-.392-6.133-.6-12.037-1.217-17.624s-1.45-11.358-3.038-16.009c-.773-2.263-2.159-4.161-3.445-6.481-1.184-2.137-2.853-4.192-3.04-5.672-.49-3.92,2.992-10.157,6.079-10.538,2.625-.322,3.31,2.061,5.471,1.826,2.355-.261,1.872-3.685,5.469-3.445C184.071,208.527,187.609,204.026,194.833,203.214Z" transform="translate(-164.394 -203.214)"/><path class="c" d="M186.362,309.969c2.033,3.263,3.989,8.473,2.634,13.173-.746,2.579-4.4,6.214-6.485,6.682-1.173.264-2.105-.2-3.241,0-8.259-3.571-9.761-20.49,1.417-21.677C183.585,307.842,184.353,309.061,186.362,309.969Z" transform="translate(-157.341 -114.054)"/><path class="c" d="M175.208,315.083c1.819,4.259,3.8,8.353,7.495,10.738,8.849,1.9,8.9-6.882,13.169-9.522,2.818-1.739,8.78-1.177,9.321,2.03.37,2.2-1.647,5.254-2.431,6.888a104.558,104.558,0,0,0-7.7,22.486c-3.935,17.365-2.339,38.465-2.024,58.958.213,13.977,1.106,27.248,1.619,39.913.479,11.8,1.693,21.607,5.066,31,.779,2.172,2,4.858,1.622,8.307-.45,4.07-3.913,6.17-6.486,2.836a34.1,34.1,0,0,1-10.738,0c1.521,3.084,9.456-.25,11.55,2.836.34.5,1.741,5.757,1.014,6.484-.8.8-1.695-.185-3.647-.405-3.238-.366-9.676-.485-10.939-3.445-.931-2.17-.152-10.878.2-13.578.429-3.273,1.253-6.235,1.419-8.708.7-10.514-.733-20.734-.2-31.2.5-9.805-.609-19.724-.609-30.591,0-16.157-.9-30.88-1.619-45.989-.507-10.651-.276-22.1-3.85-30.191-1.857-4.2-5.826-6.564-7.9-10.331-1.236-2.246-3.145-7.558.609-8.51C171.728,314.678,173.595,315.385,175.208,315.083Z" transform="translate(-161.382 -108.227)"/><path class="c" d="M169.1,319.41c.172-.039.192.076.205.2,1.8,2.026,2.468,4.346,4.052,6.686,1.232,1.824,3.591,3.373,4.253,5.267,1.787,5.1.052,14.277,0,20.665-.044,5.482.405,11.243.405,17.019,0,17.165,1.312,33.779,2.431,49.434.154,2.153.862,4.527,1.016,6.484.572,7.354.877,15.03,1.215,22.689.337,7.711,1.166,15.711.6,23.1-.425,5.613-2.668,11.186-2.227,17.017-4.405-1.573-3.091-9.119-2.636-14.586,1.515-18.175-1.419-34.911-2.227-52.27-.537-11.559-1.332-23.307-2.026-34.85-.731-12.111-.376-24.044-.809-35.657-.178-4.712-.276-9.915-1.215-14.388-.8-3.789-3.045-5.989-4.864-9.115C167.224,323.874,167.058,320.536,169.1,319.41Z" transform="translate(-161.964 -104.446)"/><path class="c" d="M207.367,447.617c-.285.392-.111,1.238-1.014,1.012.907,1.854,1.9,4.153,1.014,6.686a7.414,7.414,0,0,1-2.229,1.216c.279,1.308.353,3.041-.405,3.85-1.789-.111-2.359-2.316-4.052-2.635-1.993-.374-3.019,1.034-5.065,1.419-.07-1.552,1.162-2,1.214-3.243.074-1.658-1.811-3.167-1.417-5.467,1.865-2.309,2.845-6.411,7.5-5.269-4.15-2.481-5.863,2.25-7.5,4.255-.453-1.358,1.3-4.762.81-7.7-.15-.894-.914-2.919-2.429-2.631-3.585.681.907,9.25-.2,11.145-1.206-1.267-4.477-1.88-5.672.4-2.292-2.7.866-4.658.607-8.712a47.221,47.221,0,0,0-2.026-11.55c-1.395,3.872-1.384,9.524-1.419,14.59-.019,2.955,1.423,5.395,1.014,7.7a4.2,4.2,0,0,0-6.281-1.824c.2-3.95,1.88-8.716,1.014-13.574-.085-.475-.524-1-.609-1.621-2.886,2.048-1,6.745-1.215,10.333-.109,1.832-1.4,3.852-.405,6.077-2-.96-4.468.135-5.674.4.524-2.851,1.978-4.773,2.028-8.1-2.842.128-2.969,5.737-2.634,8.512-1.754-1.61-4.335-.84-5.876.4-.827-2.468,1.824-3.156,1.622-5.671-3.528-.969-1.537-5.968,0-7.9.738-.927,2-1.423,2.229-2.429.172-.755-.461-1.493-.407-2.026.2-2.078,2.788-2.37,3.038-3.852.2-1.014-.627-.988-.607-1.82,2.827-3.589,4.592-8.238,5.672-13.576,1.941-.762,2.786-2.618,4.255-3.85,2.144,1.441,4.5,3.358,7.9,3.85,3.269.474,6.592.009,9.115,1.619,1.2,1.844,1.706,4.335,2.635,6.89.8,2.211,2.129,4.511,2.431,6.888.666,5.262-.786,8.945,1.014,12.967C205.869,445.558,207.006,446.453,207.367,447.617Z" transform="translate(-162.948 -25.595)"/><path class="c" d="M183.846,437.232c-.342.333-.91.442-1.215.812-.165,1.721,1.141,1.967.81,3.85-.988-.059-1.532-1.611-2.838-1.419-1.214.176-.868,1.536-2.227,1.826-.263-1.41.285-2.644,0-4.055-.146-.723-.777-1.19-.81-1.82C177.285,431.316,184.7,430.735,183.846,437.232Z" transform="translate(-153.204 -8.324)"/><path class="c" d="M179.5,436.819c-.609.675-2.15.416-2.429,1.423.387,1.334,1.752,2.807.81,4.253-1.208-.779-2.832-.157-4.255,0-.527-1.563.555-2.662,1.014-3.85C169.95,434.373,179.865,429.833,179.5,436.819Z" transform="translate(-156.759 -7.709)"/><path class="c" d="M174.54,439.709c-1.19-.7-2.111-1.023-3.445-.2-.059-2.015-1.53-2.322-1.415-3.648.239-2.84,5.713-2.429,6.076-.2C176.02,437.272,173.854,437.213,174.54,439.709Z" transform="translate(-159.906 -7.151)"/><path class="c" d="M167.4,439.549c.611-1.563-.289-2.094-1.012-2.838.226-2.141,1.894-2.834,4.457-2.633,1.4,1.367.446,3.872.407,5.672C170.313,438.846,168.149,439.734,167.4,439.549Z" transform="translate(-162.696 -6.991)"/><path class="c" d="M173.872,438.051c-.361,1.238.3,2.292-.2,3.443-2.4.955-3.515-1.056-3.443-3.241C171.1,436.95,173,436.33,173.872,438.051Z" transform="translate(-159.439 -4.481)"/><path class="c" d="M170.807,437.551c.083,1.974-1.04,2.744-2.838,2.834-.3-.844-.879-1.415-.808-2.631C167.714,436.966,170.019,436.9,170.807,437.551Z" transform="translate(-162.047 -4.386)"/><path class="c" d="M178.806,444.422c.39-1.889-1.265-2.777-1.014-4.255.226-1.334,1.95-1.956,2.834-3.038,1.526.115,1.78,1.2,1.826,2.836.028,1.025.662,1.991.607,2.429C182.811,444.433,180.637,446.2,178.806,444.422Z" transform="translate(-153.027 -4.369)"/><path class="c" d="M191.744,440.926c.078,1.495-1.547,1.759-2.431,2.631-1.275,1.26-2.227,4.163-5.066,2.838-1.412-.66-.786-1.911-1.215-3.441-.235-.849-1.493-1.732-1.417-2.84.126-1.839,3.793-3.639,6.281-2.633C189.67,438.2,189.932,440.691,191.744,440.926Z" transform="translate(-149.758 -4.316)"/><path class="c" d="M178.167,439.73c-.629.718-.522,2.174-.807,3.236-2.438,2.085-3.659-1.177-3.852-3.236C174.049,437.742,177.542,438.08,178.167,439.73Z" transform="translate(-156.645 -3.32)"/></g><g transform="translate(1570.203 555.496)"><path class="c" d="M223.835,203.214h-2.427c-1.913,1.315-1.869.766-2.84,1.621-2.6,2.3-5.563,10.938-3.038,16,.727,1.462,1.6.851,3.241,1.822,1.541.912,2.657,3.008,3.85,4.459,1.413,1.719,2.951,3.247,3.647,4.862,2.5,5.805,1.389,15.489,1.824,23.3.142,2.583.84,5.138,1.014,7.9.7,11.319-.407,23.949-.407,36.674,0,12.473-.248,25.118-.2,36.67a160.022,160.022,0,0,1-3.243,34.239,48.464,48.464,0,0,1-8.71,19.25c-1.536,2.131-3.312,3.382-4.053,5.467-1,2.816-.191,6.8.812,9.319.683,1.73,1.5,3.548,4.455,3.445,3.667-.126,4.041-4.309,5.269-7.091.882-2,1.878-4.337,4.052-4.86,2.857-.692,6.005.418,7.7,1.214,2.792,1.314,4.794,7.141,7.7,7.293,1.423.078,4.821-1.965,5.267-3.647.381-1.432-.074-4.105-.2-5.874a41.665,41.665,0,0,0-.81-5.469c-.714-3.443-2.535-6.357-3.24-9.119-1.323-5.156-.886-11.448-1.217-17.626-.969-18.131-1.215-37-1.215-55.717,0-12.244,1.663-23.378,2.433-35.457.39-6.133.6-12.037,1.214-17.624s1.452-11.358,3.04-16.009c.773-2.263,2.157-4.161,3.445-6.481,1.182-2.137,2.853-4.192,3.038-5.672.49-3.92-2.99-10.157-6.077-10.538-2.625-.322-3.312,2.061-5.471,1.826-2.357-.261-1.874-3.685-5.469-3.445C234.6,208.527,231.058,204.026,223.835,203.214Z" transform="translate(-209.511 -203.214)"/><path class="c" d="M220.595,309.969c-2.035,3.263-3.987,8.473-2.633,13.173.746,2.579,4.4,6.214,6.485,6.682,1.171.264,2.1-.2,3.239,0,8.257-3.571,9.761-20.49-1.417-21.677C223.37,307.842,222.6,309.061,220.595,309.969Z" transform="translate(-204.851 -114.054)"/><path class="c" d="M241.191,315.083c-1.82,4.259-3.8,8.353-7.495,10.738-8.851,1.9-8.9-6.882-13.173-9.522-2.816-1.739-8.78-1.177-9.317,2.03-.372,2.2,1.645,5.254,2.431,6.888a104.658,104.658,0,0,1,7.7,22.486c3.937,17.365,2.339,38.465,2.026,58.958-.213,13.977-1.106,27.248-1.621,39.913-.479,11.8-1.691,21.607-5.066,31-.781,2.172-2,4.858-1.621,8.307.448,4.07,3.911,6.17,6.481,2.836a34.115,34.115,0,0,0,10.74,0c-1.517,3.084-9.454-.25-11.548,2.836-.34.5-1.741,5.757-1.014,6.484.8.8,1.695-.185,3.648-.405,3.236-.366,9.674-.485,10.939-3.445.929-2.17.152-10.878-.2-13.578-.429-3.273-1.253-6.235-1.417-8.708-.707-10.514.733-20.734.2-31.2-.5-9.805.607-19.724.607-30.591,0-16.157.9-30.88,1.623-45.989.507-10.651.274-22.1,3.846-30.191,1.859-4.2,5.83-6.564,7.9-10.331,1.238-2.246,3.145-7.558-.609-8.51C244.669,314.678,242.8,315.385,241.191,315.083Z" transform="translate(-210.251 -108.227)"/><path class="c" d="M237.61,319.41c-.174-.039-.192.076-.2.2-1.8,2.026-2.474,4.346-4.054,6.686-1.234,1.824-3.589,3.373-4.253,5.267-1.785,5.1-.052,14.277,0,20.665.044,5.482-.407,11.243-.407,17.019,0,17.165-1.308,33.779-2.429,49.434-.154,2.153-.862,4.527-1.014,6.484-.572,7.354-.879,15.03-1.216,22.689-.339,7.711-1.167,15.711-.6,23.1.426,5.613,2.664,11.186,2.226,17.017,4.405-1.573,3.09-9.119,2.634-14.586-1.512-18.175,1.419-34.911,2.229-52.27.537-11.559,1.328-23.307,2.026-34.85.731-12.111.376-24.044.808-35.657.178-4.712.276-9.915,1.216-14.388.8-3.789,3.047-5.989,4.864-9.115C239.486,323.874,239.655,320.536,237.61,319.41Z" transform="translate(-199.984 -104.446)"/><path class="c" d="M211.015,447.617c.285.392.113,1.238,1.014,1.012-.907,1.854-1.9,4.153-1.014,6.686a7.436,7.436,0,0,0,2.229,1.216c-.279,1.308-.352,3.041.405,3.85,1.789-.111,2.361-2.316,4.054-2.635,1.989-.374,3.016,1.034,5.064,1.419.072-1.552-1.162-2-1.214-3.243-.074-1.658,1.809-3.167,1.417-5.467-1.865-2.309-2.842-6.411-7.5-5.269,4.15-2.481,5.861,2.25,7.5,4.255.453-1.358-1.3-4.762-.81-7.7.152-.894.914-2.919,2.429-2.631,3.585.681-.9,9.25.2,11.145,1.2-1.267,4.477-1.88,5.674.4,2.292-2.7-.87-4.658-.609-8.712a47.22,47.22,0,0,1,2.026-11.55c1.4,3.872,1.386,9.524,1.419,14.59.018,2.955-1.423,5.395-1.014,7.7a4.2,4.2,0,0,1,6.281-1.824c-.2-3.95-1.88-8.716-1.012-13.574.083-.475.522-1,.607-1.621,2.886,2.048,1,6.745,1.214,10.333.111,1.832,1.406,3.852.407,6.077,2-.96,4.466.135,5.674.4-.524-2.851-1.98-4.773-2.028-8.1,2.842.128,2.969,5.737,2.634,8.512,1.754-1.61,4.338-.84,5.876.4.827-2.468-1.82-3.156-1.622-5.671,3.528-.969,1.536-5.968,0-7.9-.738-.927-2-1.423-2.227-2.429-.172-.755.459-1.493.405-2.026-.2-2.078-2.786-2.37-3.038-3.852-.2-1.014.629-.988.607-1.82-2.827-3.589-4.594-8.238-5.674-13.576-1.937-.762-2.784-2.618-4.255-3.85-2.142,1.441-4.5,3.358-7.9,3.85-3.271.474-6.592.009-9.117,1.619-1.2,1.844-1.706,4.335-2.634,6.89-.8,2.211-2.131,4.511-2.429,6.888-.668,5.262.784,8.945-1.014,12.967C212.513,445.558,211.377,446.453,211.015,447.617Z" transform="translate(-210.669 -25.595)"/><path class="c" d="M218.334,437.232c.342.333.91.442,1.216.812.165,1.721-1.141,1.967-.81,3.85.986-.059,1.532-1.611,2.838-1.419,1.215.176.868,1.536,2.229,1.826.261-1.41-.285-2.644,0-4.055.144-.723.775-1.19.808-1.82C224.893,431.316,217.482,430.735,218.334,437.232Z" transform="translate(-204.211 -8.324)"/><path class="c" d="M222.579,436.819c.611.675,2.153.416,2.433,1.423-.387,1.334-1.754,2.807-.812,4.253,1.208-.779,2.834-.157,4.255,0,.525-1.563-.555-2.662-1.012-3.85C232.129,434.373,222.21,429.833,222.579,436.819Z" transform="translate(-200.554 -7.709)"/><path class="c" d="M227.522,439.709c1.191-.7,2.113-1.023,3.447-.2.059-2.015,1.528-2.322,1.417-3.648-.24-2.84-5.717-2.429-6.077-.2C226.044,437.272,228.21,437.213,227.522,439.709Z" transform="translate(-197.394 -7.151)"/><path class="c" d="M234.253,439.549c-.611-1.563.289-2.094,1.012-2.838-.226-2.141-1.894-2.834-4.457-2.633-1.4,1.367-.444,3.872-.405,5.672C231.342,438.846,233.505,439.734,234.253,439.549Z" transform="translate(-194.195 -6.991)"/><path class="c" d="M227.065,438.051c.359,1.238-.3,2.292.2,3.443,2.4.955,3.515-1.056,3.445-3.241C229.84,436.95,227.938,436.33,227.065,438.051Z" transform="translate(-196.732 -4.481)"/><path class="c" d="M230.132,437.551c-.081,1.974,1.04,2.744,2.838,2.834.3-.844.879-1.415.808-2.631C233.225,436.966,230.918,436.9,230.132,437.551Z" transform="translate(-194.128 -4.386)"/><path class="c" d="M222.889,444.422c-.39-1.889,1.264-2.777,1.012-4.255-.226-1.334-1.95-1.956-2.836-3.038-1.524.115-1.778,1.2-1.824,2.836-.028,1.025-.66,1.991-.609,2.429C218.884,444.433,221.056,446.2,222.889,444.422Z" transform="translate(-203.903 -4.369)"/><path class="c" d="M212.172,440.926c-.076,1.495,1.545,1.759,2.431,2.631,1.275,1.26,2.229,4.163,5.064,2.838,1.413-.66.788-1.911,1.217-3.441.237-.849,1.495-1.732,1.419-2.84-.128-1.839-3.795-3.639-6.283-2.633C214.246,438.2,213.985,440.691,212.172,440.926Z" transform="translate(-209.394 -4.316)"/><path class="c" d="M223.231,439.73c.633.718.525,2.174.81,3.236,2.437,2.085,3.658-1.177,3.85-3.236C227.351,437.742,223.858,438.08,223.231,439.73Z" transform="translate(-199.991 -3.32)"/></g><g transform="translate(1513.337 179.215)"><path class="d" d="M245.219,41.82c-1.156,1.893.3,4.7,1.212,6.806,1.336,3.077,1.471,6.542,1.761,10.962a45.726,45.726,0,0,0,.22,5.191c.394,2.079,3.069,3.395,2.644,6.114-.278,1.769-4.078,3.695-5.728,4.385-1.121.47-2.368.916-3.632,1.386-1.3.483-2.718.716-3.745,1.154-2.662,1.138-4.37,3.9-3.191,7.613a5.026,5.026,0,0,1-3.3,1.271c-1.1.107-2.4.233-3.524.231a15.346,15.346,0,0,0-1.981-.231c-.888.122-1.624,1.082-2.644,1.153-1.243.089-2.218-.579-2.971.346-.492-.043-.879-.675-1.541-.807-.784-.155-1.641.353-2.753.346-.686-.006-1.4-.512-2.424-.346a4.914,4.914,0,0,0-1.539.807c-.814-.89-1.92-.228-3.2-.346-.944-.089-1.61-1.008-2.42-1.153a10.582,10.582,0,0,0-1.983.231c-1.125.017-2.438-.139-3.523-.231a5.1,5.1,0,0,1-3.413-1.271,5.942,5.942,0,0,0-3.082-7.613c-1.047-.475-2.5-.651-3.854-1.154-2.481-.919-4.819-1.475-6.936-3.116-.879-.677-2.279-1.811-2.424-2.538-.537-2.725,2.22-4.152,2.644-6.116a39,39,0,0,0,.218-5.191c.124-1.726.111-3.482.22-5.193.327-5.1,3.772-8.015,2.864-12.69.529,2.969-1.7,4.953-2.422,7.036-1.371,3.965-1.415,8.742-1.321,14.31-1.885-4.481-3.745-9.5-3.524-15.232a43.921,43.921,0,0,1,1.321-9.345c.81-3.034,1.206-6.214,2.092-8.538a30.489,30.489,0,0,1,3.082-5.193A30.738,30.738,0,0,1,201.509,12.4c4.6-1.811,9.789-3.937,15.084-3.806,5.4.133,10.018,2.192,14.534,4.037a30.1,30.1,0,0,1,11.23,7.5,42.856,42.856,0,0,1,3.965,5.423A20.766,20.766,0,0,1,249.4,31.9c1.384,5.6,3.1,11.735,3.082,18.345-.013,5.078-2.342,8.56-3.523,12.925-.189-5.7.1-10.74-1.761-15-.9-2.072-2.342-3.056-2.091-6.116-.02-.1.041-.107.109-.113Zm-49.545,7.615c-2.6,1.278-5.633,3.856-6.716,6.692-1.391,3.652.374,7.052,1.872,9.113,1.121,1.543,1.917,2.292,4.623,1.963a41.691,41.691,0,0,0,6.5-1.617c1.956-.6,4.683-1.634,5.724-2.536,1.512-1.308,3.232-5.1,3.3-7.617a6.822,6.822,0,0,0-3.193-6.113A9.426,9.426,0,0,0,201.95,47.7,20.674,20.674,0,0,0,195.674,49.435Zm30.056-.923a12.46,12.46,0,0,0-2.751,1.846c-2.12,2.466-1.837,6.4-.442,9.345,1.656,3.495,3.695,4.62,7.818,5.883a39.486,39.486,0,0,0,6.607,1.617,8.265,8.265,0,0,0,2.862-.117c.958-.344,2.707-3.038,3.082-3.8,3.221-6.577-2.372-11.924-6.275-13.848-1.661-.818-5.661-2.081-7.926-1.73A11.663,11.663,0,0,0,225.731,48.512Zm-6.163,15.576a15.414,15.414,0,0,1-1.543-2.078c-.588-1.291-.512-2.771-1.872-3.114-1.513.479-1.247,1.926-1.87,3.23-.442.925-1.438,1.734-2.092,3a23.661,23.661,0,0,0-1.432,3.806c-.751,2.433-2.07,7.015-.881,8.886,1.225,1.924,4.446.168,6.275-.231,2.083.692,5.134,1.907,6.716,0C223.115,71.647,221.722,67.332,219.568,64.087Z" transform="translate(-179.912 -8.585)"/><path class="d" d="M183.374,44.822c1.767.955,4.053,1.365,5.835,2.309a90.766,90.766,0,0,0,2.864,9.92c.579,1.608,1.793,2.629,2.091,4.155.287,1.463-.157,2.66.44,3.691.318.553.833.368,1.761.807.67.32.957,1.1,1.981.694.525.1.4.89.77,1.153,1.038-.562,1.332.912,2.094,1.154.568.181,1.539-.242,2.2,0,.7.257.908,1.088,1.432,1.154.907.117,1.556-.825,2.2-1.386a2.2,2.2,0,0,0,2.864,0c.572.326.942.862,1.541,1.154,1.813-.9,4.105.74,4.955-1.154a2.2,2.2,0,0,0,2.862,0c.9,1.145,2.84,1.985,3.635.231.962-.241,1.521.187,2.2,0,.753-.209.9-1.419,2.092-1.154.481-.152.381-.908.771-1.153,1.624.2,2.525-.934,3.854-1.386.6-1.347.07-3.184.659-4.5.553-1.23,1.4-2.155,1.874-3.461a83.558,83.558,0,0,0,2.862-9.92c1.782-.944,4.066-1.354,5.835-2.309-3.075,5.545-2.988,13.705-3.634,21.576a15.147,15.147,0,0,1-3.084,7.269c-.535.716-1.339,1.2-1.87,1.848-3.2,3.88-6.292,8.446-11.01,10.035a16.052,16.052,0,0,1-6.277.808c-1.719-.241-2.982-.936-5.395-.694-.849.087-1.674.574-2.531.694a15,15,0,0,1-6.166-.808c-5.85-1.92-8.73-7.737-12.882-11.654-1.056-2.159-2.9-4.283-3.191-7.384-.363-3.909-.178-8.231-.771-12.114A42.673,42.673,0,0,0,183.374,44.822Z" transform="translate(-176.97 22.219)"/><path class="d" d="M189.444,50.622c1.848.242,1.149,3.613.988,5.308C189.1,55.286,189.245,52.487,189.444,50.622Z" transform="translate(-171.919 27.15)"/><path class="d" d="M209.978,50.622c.524.564.429,2.033.331,3-.1,1-.468,2.048-.992,2.311C208.9,54.5,208.5,51.09,209.978,50.622Z" transform="translate(-155.24 27.15)"/><path class="d" d="M191.09,51.058c.6,1.1.568,3.98.331,5.193-1.906-.22-1.284-3.634-.992-5.193Z" transform="translate(-171.256 27.52)"/><path class="d" d="M191.771,51.058a38.488,38.488,0,0,1,.329,5.77c-1.585.009-1.086-4.287-.879-5.77Z" transform="translate(-170.503 27.52)"/><path class="d" d="M208.3,51.058c.2,1.484.7,5.78-.879,5.77a38.015,38.015,0,0,1,.329-5.77Z" transform="translate(-156.536 27.52)"/><path class="d" d="M209.266,51.058c.294,1.56.916,4.973-.992,5.193C208.282,55.069,207.451,51.1,209.266,51.058Z" transform="translate(-155.959 27.52)"/><path class="d" d="M194.071,51.905c.018,1.87-.191,3.493-.109,5.426-2.653,1.774-2.3-3.541-2.313-5.656C192.219,50.708,193.57,51.234,194.071,51.905Z" transform="translate(-169.941 27.594)"/><path class="d" d="M208.517,51.686c-.018,2.115.339,7.43-2.313,5.656.374-1.476-.5-3.846-.109-5.193A1.376,1.376,0,0,1,208.517,51.686Z" transform="translate(-157.742 27.585)"/><path class="d" d="M196.067,58.345a2.136,2.136,0,0,1-2.864-.923c-.385-1.027.019-5.6.553-6.229,1.739-.135,2.962.368,3.191,1.5C197.255,54.227,195.838,56.643,196.067,58.345Z" transform="translate(-168.744 27.617)"/><path class="d" d="M207.274,51.3c.535,2.69,1.284,8.523-2.533,7.038.207-1.676-1.13-4.011-.881-5.537C204.071,51.512,205.518,50.892,207.274,51.3Z" transform="translate(-159.581 27.622)"/><path class="d" d="M201.459,51.958c-.224,2.239.607,5.254,0,7.5a6.741,6.741,0,0,1-4.623-.69c-.211-2.418.981-4.355,1.321-6.577C198.693,51.325,200.674,51.284,201.459,51.958Z" transform="translate(-165.548 27.89)"/><path class="d" d="M202.98,52.081c.242,1.915,1.678,4.148,1.432,6.575-.862.923-2.993,1.075-4.627.807-.611-2.155.209-5.151,0-7.267C200.181,51.2,202.429,51.332,202.98,52.081Z" transform="translate(-163.215 27.883)"/><path class="d" d="M199,52.693c-.734,1.689-.512,4.383-1.43,5.883A4.115,4.115,0,0,1,194.928,58c-.2-2.664,1.151-4.22,1.321-6.115A1.981,1.981,0,0,1,199,52.693Z" transform="translate(-167.166 27.963)"/><path class="d" d="M204.633,51.884c.174,1.894,1.526,3.45,1.321,6.115a4.106,4.106,0,0,1-2.642.577c-.918-1.5-.694-4.194-1.43-5.883A1.98,1.98,0,0,1,204.633,51.884Z" transform="translate(-161.237 27.963)"/><path class="d" d="M189.607,54.928c-.05-.1-.1-.205-.22-.231-.07-.86.625-1.269,1.21-.8C190.575,54.56,190.29,54.954,189.607,54.928Z" transform="translate(-171.862 29.765)"/><path class="d" d="M208.966,53.892c.586-.464,1.282-.056,1.212.8C209.686,55.237,208.881,54.665,208.966,53.892Z" transform="translate(-155.22 29.765)"/><path class="d" d="M191.778,54.208a8.424,8.424,0,0,1-.992,3C188.394,57.557,189.876,53,191.778,54.208Z" transform="translate(-171.722 30.024)"/><path class="d" d="M209.35,57.207a6.033,6.033,0,0,1-1.1-3C210.116,53.017,211.594,57.424,209.35,57.207Z" transform="translate(-155.824 30.024)"/><path class="d" d="M192.657,54.73c-.168.864,0,2.074-.22,2.884a1.875,1.875,0,0,1-1.98-.229C190.544,55.736,191,53.405,192.657,54.73Z" transform="translate(-170.949 30.309)"/><path class="d" d="M209.559,57.385c-.5.392-1.606.664-2.091.115a20.131,20.131,0,0,0-.111-2.77C209.013,53.405,209.468,55.736,209.559,57.385Z" transform="translate(-156.582 30.309)"/><path class="d" d="M193.367,55.08c-.133,1.129-.181,2.346-.331,3.461a2.229,2.229,0,0,1-.99.115C191.491,57.441,191.36,53.591,193.367,55.08Z" transform="translate(-169.9 30.653)"/><path class="d" d="M207.835,54.844a6.649,6.649,0,0,1-.111,3.807,2.231,2.231,0,0,1-.988-.115c-.15-1.116-.2-2.333-.331-3.461C206.925,55.018,207.3,54.552,207.835,54.844Z" transform="translate(-157.392 30.657)"/><path class="d" d="M193.205,54.925a6.083,6.083,0,0,0,2.092.807,32.58,32.58,0,0,1,.331,3.461,4.133,4.133,0,0,1-2.864,0A9.46,9.46,0,0,1,193.205,54.925Z" transform="translate(-169.075 30.808)"/><path class="d" d="M207.6,59.193a4.127,4.127,0,0,1-2.862,0,31.638,31.638,0,0,1,.331-3.461c.7-.191,1.493-.278,1.869-.807C207.686,55.737,207.793,57.774,207.6,59.193Z" transform="translate(-158.808 30.808)"/><path class="d" d="M197.083,55.753c.7,1.9.673,4.673-1.541,4.732-.564-.7-1.586-3.332-1.1-4.616C194.9,54.65,195.941,55.8,197.083,55.753Z" transform="translate(-167.669 31.132)"/><path class="d" d="M205.8,55.414c.463,1.652.028,4.12-.882,5.078-2.215-.059-2.237-2.829-1.541-4.732C204.387,55.89,204.851,54.987,205.8,55.414Z" transform="translate(-160.309 31.125)"/><path class="d" d="M198.912,56.221c.176,1.907-.072,3.493-1.321,3.345-1.2-.141-1.19-2.387-1.541-3.693C196.982,55.048,197.832,56.184,198.912,56.221Z" transform="translate(-166.194 31.358)"/><path class="d" d="M204.289,55.873c-.35,1.306-.337,3.552-1.541,3.693-1.251.148-1.495-1.438-1.319-3.345C202.508,56.184,203.357,55.048,204.289,55.873Z" transform="translate(-161.664 31.358)"/><path class="d" d="M200.639,56.233c.139,1.092.425,2.52-.22,3.234h-1.761c-.746-.642-.546-2.276-.882-3.349A13.931,13.931,0,0,1,200.639,56.233Z" transform="translate(-164.728 31.805)"/><path class="d" d="M202.656,56.118c-.335,1.073-.135,2.707-.881,3.349-2.261.59-2.542-1.571-1.983-3.234A13.931,13.931,0,0,1,202.656,56.118Z" transform="translate(-163.223 31.805)"/></g><g transform="translate(1625.544 344.598)"><path class="d" d="M270.732,176.914c1.628-1.4,5.1.4,6.144-1.077a6.452,6.452,0,0,0,0-5.415c-1.053-1.7-1.14-3.73-6.048-3.7-1.049.007-5.406,2.009-6.181,2.353-6.27,2.8-9.576,1.539-11.9,3.034-.969.625-.409,4.54-.124,5.774a23.621,23.621,0,0,0,2.048,5.606c1.212,2.311,2.951,4.655,4.1,7.439,1.254,3.058,1.724,6.736,1.724,11.535,0,15.659,1.153,31.059.324,46.568-.174,3.256-.324,6.222-.324,9.163a52.238,52.238,0,0,0,1.079,8.3c.27,1.767.115,4.3.215,6.792.081,1.968-.2,5.408,1.51,5.5,1.556.083,1.088-1.56,2.155-2.479.855-.733,2.407-.266,2.91-1.291.638-1.3-.577-2.757-.969-3.883a23.859,23.859,0,0,1-1.186-6.146c-.335-6.642.279-13.445.54-19.618.266-6.349,1.077-12.551,1.077-19.08,0-7.26-.215-13.82-.215-19.942a59.389,59.389,0,0,1,.322-9.38,23,23,0,0,1,1.079-3.989,22.151,22.151,0,0,0,1.293-3.665C270.96,184.951,268.729,180.268,270.732,176.914Z" transform="translate(-230.773 -34.164)"/><path class="d" d="M268.425,172.449c-1.61-.725-5.006.479-5.5,1.722s-.15,3.088,0,4.636a44.3,44.3,0,0,1,.538,4.42c-.052,1.622-.969,3.047-1.077,4.851-.037.618.2,1.3.215,2.048.015.7-.161,1.443-.107,2.157.27,3.513,2.836,5.905,2.8,8.838-.017,1.521-.945,2.82-.969,4.527a30.105,30.105,0,0,0,.862,4.636c.257,1.549.59,3.117.864,4.638.542,3.014,1.378,6.192,1.615,9.269a84.438,84.438,0,0,1,.107,9.271c-.08,2.139-.542,4.259-.646,6.47-.216,4.538-.265,9-.648,13.474a30.445,30.445,0,0,1-2.046,9.7c-.472,1.136-.849,2.368-1.293,3.449-.513,1.241-1.994,2.61-1.728,3.881a2.636,2.636,0,0,0,1.4,1.4c.636.233,1.547.105,2.374.322a17.071,17.071,0,0,1,2.372,1.079c.851.4,1.919.646,2.479.973a8.473,8.473,0,0,1,1.832,1.939c.416.542.89,1.944,1.724,2.048,1.308.165,2.794-2.261,3.019-3.234.348-1.5-.07-3.75-.322-5.606-1.706-12.512-.329-27.535-.864-40.748-.455-11.3-3.025-21.178-4.742-31.477-.279-1.667-.733-3.33-1.08-4.96a44.521,44.521,0,0,1-1.077-4.958,16.631,16.631,0,0,1,.864-6.575c.562-1.613,1.893-3,1.832-4.636C271.155,174.1,269.485,173.744,268.425,172.449Z" transform="translate(-222.967 -29.482)"/><path class="d" d="M259.969,234.977c.485-1.158.079-2.829,1.141-3.654,4.126-1.332,9.049-1.167,13.23-3.1,1.31-.609,2.272-1.622,3.441-2.152a13.92,13.92,0,0,1,5.186-1.058c1.18.07,2.629,2.178,3.785,1.217.725-.6.107-2.392-.318-3.262-.357-.74-1.534-1.539-2.153-2.213-1.981-2.152-4.7-4.312-6.338-6.56-2.6-3.576-4.329-8.253-5.569-13.685-1.108-4.836-.755-9.347-1.24-14.177-.472-4.734-1.319-9.545-1.9-14.558-.518-4.5-.431-9.176-.975-14.025-1.08-9.67-2.152-19-3.267-28.813-.548-4.84-.882-9.752.216-13.339.331-1.084.894-2.15,1.327-3.371a9.858,9.858,0,0,0,.932-3.6c-.176-2.66-1.956-4.856-2-7.052-1.436-1.228-3.5-1.358-5.315-1.922A10.175,10.175,0,0,0,250.135,95.2c-5.115.777-8.982,4.153-9.437,7.667-.67,5.125,3.077,9.8,5.824,11.72a9.9,9.9,0,0,1,1.9,1.273,26.191,26.191,0,0,1,2.975,5.676c2.712,6.4,3.841,14.286,4.54,20.658.47,4.259.857,8.769,1.327,13.259,1.4,13.335,2.779,26.586,3.556,39.453.509,8.388.79,17.374-1.467,24.055-.672,1.989-1.624,3.769-2.511,6.031-.631,1.6-2.461,4.562-2.379,6.107.1,1.972,1.549,4.085,2.4,4.381A4.751,4.751,0,0,0,259.969,234.977Z" transform="translate(-240.619 -95.072)"/><g transform="translate(21.519 243.671)"><path class="d" d="M265.562,230.716c1.883.516,1.787,3,2.168,5.021,1.482.39,2.289-.808,2.625-1.941a2.8,2.8,0,0,0,2.055-1.369c.313-2.766-1.586-2.512-3.654-3.535-1.785-.886-2.914-2.424-5.706-2.055-1.008.13-4.507,1.336-4.224,2.738.113.559,1.143.694,1.826,1.029.79.385,1.573,1.286,2.283,1.369A3.162,3.162,0,0,0,265.562,230.716Z" transform="translate(-246.674 -226.781)"/><path class="d" d="M256.229,234.255a4.032,4.032,0,0,0,2.855.685c1.289-1.754,3.591-3.1,4.679-4.679-.751-.725-2.089-1.669-3.082-1.6-.746.054-1.833,1.108-2.4,1.713A7.691,7.691,0,0,0,256.229,234.255Z" transform="translate(-248.869 -225.184)"/><path class="d" d="M261.17,230.763c-.413,2.379,0,6.908,1.941,7.188,3.343.488,2.409-7.757.8-8.671A14.058,14.058,0,0,0,261.17,230.763Z" transform="translate(-244.793 -224.657)"/><path class="d" d="M265.257,231.973a2.571,2.571,0,0,0,1.369,3.652c1.515.281,3.415-1.506,4.562-1.824.6-2.074-.734-4.74-2.738-4.109C267.247,230.07,266.818,231.866,265.257,231.973Z" transform="translate(-241.459 -224.386)"/><path class="d" d="M258.7,236.62c1.423-.3,2.583-.218,3.423-1.141.814-.89,1.016-4.5.459-5.708C260.942,231.175,257.016,233.277,258.7,236.62Z" transform="translate(-247.118 -224.239)"/><path class="d" d="M266.162,234.662c-.048,2.549,2.568,2.943,3.992,4.224a37.456,37.456,0,0,1,6.507,8.22c-.4,1.262-.538,3.193.57,3.763.969-.646,1.691-1.689,3.539-1.141a2.724,2.724,0,0,0,1.826-3.308c-.168-.575-.559-.664-.912-1.141-.605-.814-1.062-1.833-1.713-2.738-1.7-2.381-4.128-5.3-5.82-7.533a2.773,2.773,0,0,0-1.711-3.312c-1.256-.722-1.456,1.23-2.51,1.711C268.5,234.065,266.693,233.378,266.162,234.662Z" transform="translate(-240.426 -222.738)"/><path class="d" d="M263.687,232.608a10.3,10.3,0,0,0-.115,2.281c1.027.592,2.862.5,3.082-.57.1-.487-.716-2.485-1.369-2.627S264.323,232.294,263.687,232.608Z" transform="translate(-242.631 -222.621)"/><path class="d" d="M256.105,232.225c.213,1.957,2.015,2.927,3.881,2.851a6.251,6.251,0,0,0-.685-2.4C258.371,232.458,257.206,231.9,256.105,232.225Z" transform="translate(-248.975 -222.238)"/><path class="d" d="M257.557,232.8c-1.534,1.18-1.434,2.272-1.486,4.682-.056,2.72-1.667,6.892-2.74,8.9-.659,1.236-1.8,1.9-.455,3.079a2.729,2.729,0,0,0,3.881,3.312,4.123,4.123,0,0,0,1.142-2.511c-.024-.808-.936-1.428-1.027-2.17-.133-1.06.536-2.6.912-3.765a28.972,28.972,0,0,1,1.371-3.31,45.043,45.043,0,0,1,3.535-5.707c-1.389-.551-2.81-1.069-3.423-2.4C258.626,232.954,258.253,232.717,257.557,232.8Z" transform="translate(-252.251 -221.678)"/><path class="d" d="M264.666,233.544V233.2c-.9-.385-1.345.829-2.509,1.258-.376.137-.79.059-1.143.226a3.893,3.893,0,0,0-1.711,1.6,14.949,14.949,0,0,0-.113,2.74,41.564,41.564,0,0,1-2.055,9.587,17.237,17.237,0,0,0-1.029,2.736c-.03.5.239.823.344,1.486a16.764,16.764,0,0,0,.113,1.711c.686,1.659,4.729,1.489,5.138-.113.363-1.421-.79-3.484-.914-4.91a20.756,20.756,0,0,1,.57-5.707,26.1,26.1,0,0,1,1.256-4.9C263.4,237.167,264.688,236.286,264.666,233.544Z" transform="translate(-248.976 -221.389)"/><path class="d" d="M263.348,234.251c-.413,2.366,1.695,3.436,2.283,5.711a27.363,27.363,0,0,1,.342,5.136,30.551,30.551,0,0,1-.342,8.216c-.379,1.759-.971,3.3-.115,5.023,1.513,1.064,6.146,1.495,6.734-.572a13.08,13.08,0,0,0-.229-2.738c-.213-1.1-1-2.351-1.369-3.88a32.581,32.581,0,0,1-.683-9.474c.1-1.693.59-3.719.34-4.8-.185-.807-1.358-1.121-1.826-2.168-.207-.463-.165-1.108-.455-1.484C266.723,233.885,265.589,234.974,263.348,234.251Z" transform="translate(-242.862 -221.302)"/><path class="d" d="M261.82,233.351c-.383.644.1,1.175,0,1.939-.072.529-.529.9-.57,1.369-.118,1.291.873,3.156.8,5.023a53.92,53.92,0,0,1-1.254,9.128,21.2,21.2,0,0,0-.8,2.627c.03.474.457.659.685,1.254.331.866.265,1.586.685,1.943.842.71,2.561.525,3.769.228a4.92,4.92,0,0,0,1.254-2.855c-.044-.964-1.14-2.908-1.369-4.222-.736-4.187.513-8.816,1.369-12.555-.265-.84-.942-1.264-.8-2.512C263.467,235.379,262.808,234.158,261.82,233.351Z" transform="translate(-245.671 -221.196)"/><path class="d" d="M275.8,242.4c-.858.063-1.395-.2-2.283-.115-2.313,1.48-.664,4.827,1.713,5.136.142,1.018,1.008,2.061,1.141,3.2.1.87-.431,1.859.455,2.4.548.017.721-.385,1.258-.455,1.378-.185,3.641.944,3.652-1.029,0-.9-1.023-1.177-1.371-2.055a26.964,26.964,0,0,1-1.6-4.792c-.255-1.857.538-2.977-.912-4C276.911,241,276.443,241.788,275.8,242.4Z" transform="translate(-235.116 -214.956)"/><path class="d" d="M252.864,243.344c-1.117,1.01-.348,3.13-.228,5.023a29.343,29.343,0,0,1,0,3.994c-.111,1.375-.72,2.61.113,3.539,1.462-.507,2.442.487,3.767-.115.42-1.114-.392-1.854-.683-2.625.381-1.578.257-3.125.568-4.568.322-1.476,1.6-2.725,1.029-4.107C255.837,244.883,253.794,244.519,252.864,243.344Z" transform="translate(-252.238 -212.701)"/><path class="d" d="M256.547,260.088a11.9,11.9,0,0,1,4.109.115c.853-1.066-.242-1.994-.457-3.084a15.775,15.775,0,0,1,.228-3.423,17.677,17.677,0,0,1,.229-3.424c.2-.592,1-1.031,1.141-1.6a11.213,11.213,0,0,0-.115-2.969c-1.278-.091-1.928.47-2.968.342-.572-.067-1.41-1-2.054-.912-1.759.242-.107,3.138,0,3.994C257.052,252.308,255.35,257.411,256.547,260.088Z" transform="translate(-249.187 -211.183)"/><path class="d" d="M260.884,262.2a4.735,4.735,0,0,1,4.338.115c.683-.7.065-1.9-.342-2.514.13-4.053-.636-9,1.484-11.067-.059-.816.17-1.924-.229-2.4-1.412-.05-1.608.518-2.853.459-1.125-.052-2.964-1.6-3.424-.228-.544,1.615,1.129,3.778,1.256,4.906a29.668,29.668,0,0,1-.342,5.134c-.13,1.678-.514,3.286-.572,4.91C260.521,261.651,260.623,262,260.884,262.2Z" transform="translate(-245.878 -210.442)"/><path class="d" d="M276.8,251.353c0,1.931.6,4.364,2.283,4.222,1.876-.157,1.252-3.591,0-4.449-.137-1.43.27-2.322.229-3.654-2.072.141-4.314-.807-4.451,1.029C274.771,249.707,276.19,250.393,276.8,251.353Z" transform="translate(-233.033 -209.295)"/><path class="d" d="M264.187,248.268a28.953,28.953,0,0,1,1.369,5.136,21.7,21.7,0,0,1,.346,6.052c-.218,1.138-1.487,2.163-.229,3.308.751.266,1.269-.479,2.281-.457,1.132.022,2.155,1.049,2.738-.113.39-.771-.272-1.783-.684-2.514.144-2.625-.276-5.247.229-7.646.376-1.78,1.639-3.476.229-4.679C268.235,248.233,265.2,246.32,264.187,248.268Z" transform="translate(-242.104 -209.292)"/><path class="d" d="M252.342,250.672a56.321,56.321,0,0,0,.685,7.078c.993-.137,1.819.505,2.855.228a1.956,1.956,0,0,0-.457-1.939,8.943,8.943,0,0,1,.912-5.023C255.837,250,253.311,250.23,252.342,250.672Z" transform="translate(-252.174 -206.79)"/><path class="d" d="M255.925,253.878c-.1,2.618.679,5.328.684,8.216,1.21-.065,2.829.437,3.652-.111.2-.792-.661-1.156-.8-1.943a9.27,9.27,0,0,1,1.256-5.48C260.006,253.067,257.473,253.162,255.925,253.878Z" transform="translate(-249.135 -204.173)"/><path class="d" d="M260.066,255.8c-.218,2.662.9,5.807.688,8.673-.072.916-.575,1.893.113,2.627a35.339,35.339,0,0,1,4-.342c.363-.927-.439-1.186-.574-2.055a34.671,34.671,0,0,1,.457-6.507c.142-.833.581-1.4.457-1.939C264.717,254.107,261.42,254.5,260.066,255.8Z" transform="translate(-245.632 -203.017)"/><path class="d" d="M252.651,254.946c.05.816.568,1.371.57,2.283,0,.892-.662,3.478.914,3.421,1.476-.054.838-2.131.912-3.652.044-.881.568-1.267.572-2.052A4.143,4.143,0,0,0,252.651,254.946Z" transform="translate(-251.911 -203.072)"/><path class="d" d="M264.93,256.66c-.091,1.961.91,3.976.8,5.82-.063,1.069-1,2.266.113,2.971a2.847,2.847,0,0,0,1.6-.57c.5.22.831.611,1.6.57.945-.588.033-1.273-.115-2.17-.366-2.229.633-5.082,1.029-6.847C268.445,255.648,266.042,255.3,264.93,256.66Z" transform="translate(-241.478 -202.163)"/><path class="d" d="M258.751,261.779c.07-1.145.873-1.563.914-2.74-.914-.982-3.123-.988-3.424.115-.163.592.505,1.5.572,2.054.215,1.795-.525,4.1,1.141,4.224S259.893,262.663,258.751,261.779Z" transform="translate(-248.881 -199.975)"/><path class="d" d="M265.322,261.773c.562,2.62-1.232,4.387.344,6.161a4.849,4.849,0,0,0,1.369.117c.9-.568,1.9-2.555.457-3.2.394-.487.152-.9.457-1.484.339-.644,1.365-.992,1.254-1.595C268.983,260.567,266.069,260.952,265.322,261.773Z" transform="translate(-241.413 -197.687)"/><path class="d" d="M260.4,266.662c.411.944.66,2.492,1.6,2.625,1.506.211,2.449-2.614,1.141-3.654-.154-.929,1.452-2.442,1.256-3.423-.289-1.428-3.652-.66-4,.455C259.844,264.49,262.084,265.454,260.4,266.662Z" transform="translate(-245.398 -197.325)"/></g></g></g></svg>